<?xml version="1.0" encoding="utf-8"?>
<!-- Generator: Adobe Illustrator 26.1.0, SVG Export Plug-In . SVG Version: 6.00 Build 0)  -->
<svg version="1.1" id="Layer_1" xmlns="http://www.w3.org/2000/svg" xmlns:xlink="http://www.w3.org/1999/xlink" x="0px" y="0px"
	 viewBox="0 0 269.7 270" style="enable-background:new 0 0 269.7 270;" xml:space="preserve">
<style type="text/css">
	.st0{fill:#010101;}
	.st1{opacity:0.5;fill:#4374BA;}
	.st2{opacity:0.5;}
	.st3{fill:#4771B7;}
	.st4{opacity:0.5;fill:#4771B7;}
</style>
<path class="st4" d="M200.4,56.2c1.5,0,2.5-1,2.5-2.5V21.1c0-1.5-1-2.5-2.5-2.5h-131c-1.5,0-2.5,1-2.5,2.5v32.6c0,1.5,1,2.5,2.5,2.5
	c-3,3-4.8,7.1-4.8,11.6v146.9c0,20.2,16.4,36.7,36.7,36.7h67.3c20.2,0,36.7-16.4,36.7-36.7V67.8C205.2,63.3,203.4,59.2,200.4,56.2
	L200.4,56.2z M71.9,23.6h125.9v27.6H71.9V23.6z M188.5,56.2c6.3,0,11.6,5.3,11.6,11.6v19.5l-130.5,0V67.8c0-6.3,5.3-11.6,11.6-11.6
	L188.5,56.2z M200.1,203.6H69.6V92.4h130.5V203.6z M168.5,246.1h-67.3c-17.5,0-31.6-14.2-31.6-31.6v-5.8h130.5v5.8
	C200.1,232,185.9,246.1,168.5,246.1L168.5,246.1z"/>
</svg>
