<?xml version="1.0" encoding="utf-8"?>
<!-- Generator: Adobe Illustrator 26.2.1, SVG Export Plug-In . SVG Version: 6.00 Build 0)  -->
<svg version="1.1" id="Layer_1" xmlns="http://www.w3.org/2000/svg" xmlns:xlink="http://www.w3.org/1999/xlink" x="0px" y="0px"
	 viewBox="0 0 269.7 270" style="enable-background:new 0 0 269.7 270;" xml:space="preserve">
<style type="text/css">
	.st0{fill:#4771B7;enable-background:new    ;}
	.st1{opacity:0.5;fill:#4771B7;enable-background:new    ;}
	.st2{opacity:0.5;enable-background:new    ;}
	.st3{fill:#4771B7;}
</style>
<g class="st2">
	<path class="st3" d="M205.2,66.9c-18.5-18.5-43.2-28.8-69.4-28.8c-23.3,0-45.4,8.1-63,22.9c-1.9-2.7-3.8-5.5-5.8-8.2
		C62,46,51.4,30.3,41.5,37.1c-0.6,0.3-1.3,0.7-1.9,1.3c-8.8,8.9-1,20,5.4,27.9c3.5,4.3,7.1,8.7,10.8,13.1
		c-11.8,16.5-18.2,36.3-18.2,57c0,26.2,10.2,50.9,28.8,69.4s43.2,28.8,69.4,28.8s50.9-10.2,69.4-28.8c18.5-18.5,28.8-43.2,28.8-69.4
		S223.8,85.5,205.2,66.9z M85.2,110.3c1.9,2,4,3.7,5.9,5.7c0,0,0.1,0.1,0.1,0.1c0.1,0.1,0.1,0.3,0.3,0.4l0,0c2,1.9,4.9-0.4,6.5-1.7
		c2.2-1.8,5-4.3,6.1-7c0.2-0.5,0-1.1-0.3-1.4c-0.4-0.6-1.1-1-1.5-1.6c-0.1-0.1-0.2-0.2-0.2-0.2c-0.1-0.2-0.2-0.4-0.4-0.6
		c-4.6-6.5-9-13.1-13.4-19.8c12.5-11.5,29.2-18.6,47.6-18.6c38.7,0,70.2,31.5,70.2,70.2s-31.5,70.2-70.2,70.2s-70.2-31.5-70.2-70.2
		c0-12.8,3.4-24.8,9.4-35.1C78.4,103.9,81.7,107.2,85.2,110.3z M135.8,225.3c-49,0-88.9-39.9-88.9-88.9c0-18.4,5.6-35.5,15.2-49.7
		c2.6,2.9,5.2,5.9,7.9,8.7c-7.2,11.7-11.4,25.5-11.4,40.3c0,42.6,34.6,77.2,77.2,77.2c42.6,0,77.2-34.6,77.2-77.2
		s-34.6-77.2-77.2-77.2c-19.7,0-37.8,7.5-51.4,19.7c-2.1-3.1-4.2-6.3-6.3-9.4c15.5-13.3,35.7-21.4,57.7-21.4
		c49,0,88.9,39.9,88.9,88.9S184.9,225.3,135.8,225.3z"/>
	<polygon class="st3" points="39.6,38.4 39.6,38.4 39.6,38.4 	"/>
	<path class="st3" d="M142.4,160.8c-5.9,0-10.7,4.8-10.7,10.7c0,5.9,4.8,10.7,10.7,10.7c5.9,0,10.7-4.8,10.7-10.7
		C153.2,165.6,148.4,160.8,142.4,160.8z M142.4,180c-4.6,0-8.4-3.8-8.4-8.4c0-4.7,3.8-8.4,8.4-8.4c4.6,0,8.4,3.8,8.4,8.4
		C150.9,176.2,147.1,180,142.4,180z"/>
	<path class="st3" d="M142.4,165.1c-3.6,0-6.5,2.9-6.5,6.5c0,3.6,2.9,6.5,6.5,6.5s6.5-2.9,6.5-6.5C148.9,168,146,165.1,142.4,165.1z
		 M142.4,175.7c-2.3,0-4.2-1.9-4.2-4.2c0-2.3,1.9-4.2,4.2-4.2s4.2,1.9,4.2,4.2C146.6,173.8,144.7,175.7,142.4,175.7z"/>
	<path class="st3" d="M96.6,153.7c5.9,0,10.7-4.8,10.7-10.7c0-5.9-4.8-10.7-10.7-10.7c-5.9,0-10.7,4.8-10.7,10.7
		C85.9,148.9,90.7,153.7,96.6,153.7z M96.6,134.5c4.7,0,8.4,3.8,8.4,8.4c0,4.7-3.8,8.4-8.4,8.4c-4.7,0-8.4-3.8-8.4-8.4
		C88.2,138.3,92,134.5,96.6,134.5z"/>
	<path class="st3" d="M96.6,149.4c3.6,0,6.5-2.9,6.5-6.5c0-3.6-2.9-6.5-6.5-6.5c-3.6,0-6.5,2.9-6.5,6.5
		C90.2,146.5,93.1,149.4,96.6,149.4z M96.6,138.8c2.3,0,4.2,1.9,4.2,4.2c0,2.3-1.9,4.2-4.2,4.2s-4.2-1.9-4.2-4.2
		C92.5,140.6,94.3,138.8,96.6,138.8z"/>
	<path class="st3" d="M165.9,193c5.9,0,10.7-4.8,10.7-10.7s-4.8-10.7-10.7-10.7c-5.9,0-10.7,4.8-10.7,10.7S160,193,165.9,193z
		 M165.9,173.8c4.7,0,8.4,3.8,8.4,8.4c0,4.7-3.8,8.4-8.4,8.4c-4.7,0-8.4-3.8-8.4-8.4C157.5,177.6,161.3,173.8,165.9,173.8z"/>
	<path class="st3" d="M165.9,188.7c3.6,0,6.5-2.9,6.5-6.5s-2.9-6.5-6.5-6.5s-6.5,2.9-6.5,6.5S162.4,188.7,165.9,188.7z M165.9,178
		c2.3,0,4.2,1.9,4.2,4.2s-1.9,4.2-4.2,4.2s-4.2-1.9-4.2-4.2S163.6,178,165.9,178z"/>
	<path class="st3" d="M178.1,116c5.9,0,10.7-4.8,10.7-10.7c0-5.9-4.8-10.7-10.7-10.7c-5.9,0-10.7,4.8-10.7,10.7
		C167.3,111.2,172.2,116,178.1,116z M178.1,96.8c4.7,0,8.4,3.8,8.4,8.4c0,4.7-3.8,8.4-8.4,8.4c-4.7,0-8.4-3.8-8.4-8.4
		C169.7,100.6,173.4,96.8,178.1,96.8z"/>
	<path class="st3" d="M178.1,111.8c3.6,0,6.5-2.9,6.5-6.5c0-3.6-2.9-6.5-6.5-6.5c-3.6,0-6.5,2.9-6.5,6.5
		C171.6,108.9,174.5,111.8,178.1,111.8z M178.1,101.1c2.3,0,4.2,1.9,4.2,4.2s-1.9,4.2-4.2,4.2c-2.3,0-4.2-1.9-4.2-4.2
		S175.8,101.1,178.1,101.1z"/>
	<path class="st3" d="M174.4,164.9c0,5.9,4.8,10.7,10.7,10.7c5.9,0,10.7-4.8,10.7-10.7s-4.8-10.7-10.7-10.7
		C179.2,154.1,174.4,158.9,174.4,164.9z M193.5,164.9c0,4.7-3.8,8.4-8.4,8.4c-4.7,0-8.4-3.8-8.4-8.4c0-4.7,3.8-8.4,8.4-8.4
		C189.8,156.4,193.5,160.2,193.5,164.9z"/>
	<path class="st3" d="M178.6,164.9c0,3.6,2.9,6.5,6.5,6.5s6.5-2.9,6.5-6.5c0-3.6-2.9-6.5-6.5-6.5S178.6,161.3,178.6,164.9z
		 M189.3,164.9c0,2.3-1.9,4.2-4.2,4.2c-2.3,0-4.2-1.9-4.2-4.2c0-2.3,1.9-4.2,4.2-4.2C187.4,160.7,189.3,162.6,189.3,164.9z"/>
	<path class="st3" d="M136.5,91.3c5.9,0,10.7-4.8,10.7-10.7c0-5.9-4.8-10.7-10.7-10.7c-5.9,0-10.7,4.8-10.7,10.7
		C125.8,86.4,130.6,91.3,136.5,91.3z M136.5,72.1c4.7,0,8.4,3.8,8.4,8.4c0,4.7-3.8,8.4-8.4,8.4c-4.6,0-8.4-3.8-8.4-8.4
		C128.1,75.9,131.9,72.1,136.5,72.1z"/>
	<path class="st3" d="M136.5,87c3.6,0,6.5-2.9,6.5-6.5c0-3.6-2.9-6.5-6.5-6.5c-3.6,0-6.5,2.9-6.5,6.5C130,84.1,132.9,87,136.5,87z
		 M136.5,76.3c2.3,0,4.2,1.9,4.2,4.2c0,2.3-1.9,4.2-4.2,4.2c-2.3,0-4.2-1.9-4.2-4.2C132.3,78.2,134.2,76.3,136.5,76.3z"/>
	<path class="st3" d="M132.7,111.5c0,5.9,4.8,10.7,10.7,10.7c5.9,0,10.7-4.8,10.7-10.7c0-5.9-4.8-10.7-10.7-10.7
		C137.5,100.8,132.7,105.6,132.7,111.5z M151.9,111.5c0,4.7-3.8,8.4-8.4,8.4c-4.7,0-8.4-3.8-8.4-8.4c0-4.7,3.8-8.4,8.4-8.4
		C148.1,103.1,151.9,106.9,151.9,111.5z"/>
	<path class="st3" d="M136.9,111.5c0,3.6,2.9,6.5,6.5,6.5c3.6,0,6.5-2.9,6.5-6.5c0-3.6-2.9-6.5-6.5-6.5
		C139.8,105.1,136.9,108,136.9,111.5z M147.6,111.5c0,2.3-1.9,4.2-4.2,4.2c-2.3,0-4.2-1.9-4.2-4.2c0-2.3,1.9-4.2,4.2-4.2
		C145.7,107.4,147.6,109.2,147.6,111.5z"/>
	<path class="st3" d="M119.3,109.2c5.9,0,10.7-4.8,10.7-10.7c0-5.9-4.8-10.7-10.7-10.7c-5.9,0-10.7,4.8-10.7,10.7
		C108.5,104.4,113.3,109.2,119.3,109.2z M119.3,90c4.7,0,8.4,3.8,8.4,8.4c0,4.7-3.8,8.4-8.4,8.4c-4.7,0-8.4-3.8-8.4-8.4
		C110.8,93.8,114.6,90,119.3,90z"/>
	<path class="st3" d="M119.3,104.9c3.6,0,6.5-2.9,6.5-6.5c0-3.6-2.9-6.5-6.5-6.5c-3.6,0-6.5,2.9-6.5,6.5
		C112.8,102,115.7,104.9,119.3,104.9z M119.3,94.3c2.3,0,4.2,1.9,4.2,4.2c0,2.3-1.9,4.2-4.2,4.2c-2.3,0-4.2-1.9-4.2-4.2
		C115.1,96.2,117,94.3,119.3,94.3z"/>
</g>
</svg>
