<?xml version="1.0" encoding="utf-8"?>
<!-- Generator: Adobe Illustrator 26.2.1, SVG Export Plug-In . SVG Version: 6.00 Build 0)  -->
<svg version="1.1" id="Layer_1" xmlns="http://www.w3.org/2000/svg" xmlns:xlink="http://www.w3.org/1999/xlink" x="0px" y="0px"
	 viewBox="0 0 269.7 270" style="enable-background:new 0 0 269.7 270;" xml:space="preserve">
<style type="text/css">
	.st0{fill:#4771B7;enable-background:new    ;}
	.st1{opacity:0.5;fill:#4771B7;enable-background:new    ;}
	.st2{opacity:0.5;enable-background:new    ;}
	.st3{fill:#4771B7;}
</style>
<g class="st2">
	<path class="st3" d="M190,94.5c-5.3-5.6-13-10.6-21-11.7c1.6-3.2,2.9-6.6,3.4-10.1c1.3-7.4-1.1-18.6-8.5-22.6
		c-3.4-1.9-6.6-1.3-9.8,0c0-6.1-1.1-12.2-3.7-18c-3.4-7.7-10.1-15.9-19.4-15.7C118.6,17,116.3,29.2,116.8,42c-2.7-2.7-5.3-4.5-8.2-5
		C95.3,34,93.7,53.6,94.8,62.4c0.8,7.2,2.7,14.1,5.3,20.7c-7.4,1.1-14.6,5.6-19.9,10.9c-10.1,10.1-14.6,24.4-16.7,38.5
		c-2.4,16.2-2.7,32.9-2.1,49.1c0.5,15.4-0.5,33.7,5,48.6c2.1,5.3,8.8,5.3,10.9,0c0.8-2.4,3.4-7.7,3.7-8.2c0.3,0.8,2.9,5.3,3.7,6.9
		c3.2,5.6,7.2,9.6,13.3,11.9c0.8,0.3,1.6,0.5,2.4,0.5c0.5,0.8,1.1,1.6,1.6,2.4c4.5,6.6,11.9,10.3,19.6,7.4c3.7-1.6,6.4-4,8.5-7.2
		c6.6,9,18.6,13.3,29.5,5.8c3.4-2.4,5.6-5.8,6.9-9.8c1.3,1.3,2.9,1.9,5.3,0.8c6.1-2.7,10.1-6.4,13.3-11.9c1.3-2.4,2.1-5.3,3.7-7.7
		c0,0.3,2.9,6.4,4,9c2.1,5.3,8.8,5.3,10.9,0c5.3-14.3,4.2-31.8,4.8-47c0.5-17,0.5-34-2.1-50.9C204.1,118.4,199.6,104.6,190,94.5
		L190,94.5z M109.4,48.3c1.9,0.5,4.2,5.6,5.3,6.9c2.9,4.2,5,8.8,6.9,13.8c2.4,6.1,10.9,3.7,9.8-2.7c-1.1-6.1-1.9-11.9-2.7-18
		c-0.5-4.5-2.4-13.5-0.3-17.8c5.8-11.4,13.8,7.2,14.6,10.3c1.9,7.2,1.1,14.1-1.3,20.7c-1.6,4.8,5.3,8.8,8.8,5c1.6-1.6,5-6.6,7.4-6.9
		c3.7-0.5,4.8,6.6,4.5,9.3c-0.3,6.9-5.6,14.3-9.6,19.6c-6.6,8.8-13.8,17.5-21.2,25.7c-0.8-1.9-1.9-4-2.7-5.8
		c-4.5-8.5-10.3-15.9-14.3-24.7c-4.2-9.3-8.8-19.4-8.8-29.7C106.2,51.2,105.1,47.3,109.4,48.3L109.4,48.3z M155.8,238.8
		c-2.9,4.5-9.6,5-14.1,2.7c-5.6-3.2-7.2-8.8-6.6-14.6c0.3-5.6-9-6.9-9.8-1.3c-0.8,5-1.9,16.4-9,16.7c-7.2,0-9.3-11.1-9.8-16.2
		c-1.1-9,1.9-15.9,4.8-23.3c3.7,3.4,7.4,6.6,11.1,9.8c2.7,2.1,6.1,6.1,9.8,6.4c3.7,0.3,6.6-2.7,9.3-4.8c4-2.9,7.7-5.8,11.4-9.3
		c4.8,4.5,5.6,10.1,5.8,16.4C158.4,226.1,159,234.1,155.8,238.8L155.8,238.8z M150.7,193.5c-4,3.7-13.5,14.3-18.6,12.5
		c-5.6-2.1-12.2-10.1-16.4-14.3c-4.5-4.2-8.5-9-12.2-14.1c10.9-5.6,21-13.5,28.1-23.6c4.2,4.5,8.8,8.5,13.8,12.2
		c5.8,4.5,12.7,7.7,18.8,11.9C160,183.4,155.8,188.7,150.7,193.5L150.7,193.5z M196.6,186c-0.3,8.2-0.3,17-1.1,25.5
		c-2.4-2.4-5-4-8.5-3.4c-10.1,1.9-9,17.5-18.3,21.2c-0.3,0-0.3,0.3-0.3,0.3c-0.3-2.1-0.3-4.2-0.3-6.4c0-9.8-1.6-19.1-8.2-26.3
		c5-5.3,9.8-11.1,13-17.8c1.1-1.9,0.5-4-1.3-5.3c-6.4-4.2-12.2-10.1-18.3-14.9c-6.1-4.8-11.9-10.1-16.7-15.9
		c-1.9-2.4-4.5-2.1-6.4-0.8c-0.3,0.3-0.8,0.5-1.1,1.1c-11.4,10.6-21.5,21.5-36.1,27.6c-2.7,1.1-3.2,5-1.9,7.4
		c4,6.1,8.2,11.9,13.3,17.2c-6.4,7.4-8.8,19.1-8,29.7c-4.5-6.1-5.6-15.9-13.5-17.2c-3.4-0.5-6.4,0.8-8.5,3.4
		c-0.8-8.5-0.8-17.5-1.1-25.5c-0.5-13.5-0.8-26.8,0.5-40.3c1.1-12.5,2.9-26.3,9.6-37.1c5.3-8.8,12.7-13.3,21.5-16.7
		c6.9,13,16.4,24.7,25.7,35.6c1.6,1.9,5,0.5,5.6-1.6c0,0,0.3,0,0.3-0.3c7.2-8.5,14.3-17.2,21.2-25.7c2.1-2.7,4.5-5.6,6.4-8.5
		c9.3,3.4,17.2,8,22.6,17.2c6.6,11.1,8.5,24.7,9.6,37.1C197.4,159,197.2,172.5,196.6,186L196.6,186z"/>
	<path class="st3" d="M104.3,127.1c-1.3-0.3-2.9-0.3-4,0c-0.8,0.3-1.6,0.5-2.1,1.1c-0.8,0.3-1.6,0.8-2.1,1.3c-2.1,2.1-2.7,5-2.1,7.7
		c1.3,5,7.4,7.7,11.9,5.3c4-2.1,5.6-7.4,3.2-11.4C108.3,129.3,106.2,127.7,104.3,127.1L104.3,127.1z"/>
	<path class="st3" d="M165.3,127.1c-1.3-0.3-2.9-0.3-4,0c-0.8,0.3-1.6,0.5-2.1,1.1c-0.8,0.3-1.6,0.8-2.1,1.3
		c-1.9,1.9-2.4,4.8-1.9,7.4c1.3,5,7.4,7.7,11.9,5.3c4-2.1,5.6-7.4,3.2-11.4C169.3,129.3,167.5,127.7,165.3,127.1L165.3,127.1z"/>
</g>
</svg>
