<?xml version="1.0" encoding="utf-8"?>
<!-- Generator: Adobe Illustrator 26.1.0, SVG Export Plug-In . SVG Version: 6.00 Build 0)  -->
<svg version="1.1" id="Layer_1" xmlns="http://www.w3.org/2000/svg" xmlns:xlink="http://www.w3.org/1999/xlink" x="0px" y="0px"
	 viewBox="0 0 269.7 270" style="enable-background:new 0 0 269.7 270;" xml:space="preserve">
<style type="text/css">
	.st0{fill:#010101;}
	.st1{opacity:0.5;fill:#4374BA;}
	.st2{opacity:0.5;}
	.st3{fill:#4771B7;}
	.st4{opacity:0.5;fill:#4771B7;}
</style>
<path class="st4" d="M175,99c0-0.2,0-0.3,0-0.5V98c-1.7-8.2-6.3-15.5-11.1-23.2c-6.5-10.3-13.2-21-12.3-34h1.3c1,0,1.9-0.8,1.9-1.9
	V16.7c0-0.5-0.2-1-0.5-1.3c-0.4-0.4-0.8-0.5-1.3-0.5h-35.6c-0.5,0-1,0.2-1.3,0.5c-0.4,0.4-0.6,0.8-0.5,1.3v22.2c0,1,0.8,1.9,1.9,1.9
	h1.3c0.9,13-5.8,23.7-12.3,34c-4.9,7.7-9.4,15-11.1,23.1c-0.1,0.2-0.1,0.5-0.2,0.7V99l-1.8,61.3c-0.1,1.8,0.1,3.5,0.4,5.2
	c0.3,1.5,0.7,3,1.3,4.5c4,10.2,7,24,5,27.4c-4,6.9-6,27.5-5,40.1v0.4c0.5,4.8,2.8,9.2,6.4,12.4c3.6,3.2,8.2,4.9,13,4.9h41.3
	c4.5,0,8.9-1.5,12.4-4.4c3.5-2.9,5.9-6.9,6.8-11.3c0-0.7,0.2-1.3,0.2-2c1-12.5-1-33.1-5-40.1c-2-3.4,1.1-17.2,5-27.4v0
	c0.6-1.4,1-2.9,1.3-4.5c0.3-1.7,0.5-3.5,0.4-5.2L175,99z M134.9,164.7h-12.8l-5-0.2c-2.5,0-5.2-0.2-7.8-0.3l-5.4-0.3l-6.9-0.5
	c-0.1-1-0.1-2,0-3l1.8-60.1h1.3l4.2,0.2h2.1l4.3,0.2h1.6l5.5,0.2h1.2l4.3,0.2H136h10.3v0.4v1.2v1.7v1.3c0,0.4,0,1.2,0.2,1.8
	c0.2,0.6,0,0.9,0.2,1.4l0.3,1.9l0.3,1.4c0,0.7,0.3,1.3,0.4,2c0.2,0.7,0.2,0.9,0.3,1.4c0.1,0.5,0.4,1.4,0.6,2.1l0.4,1.4l0.7,2.4
	c0.1,0.4,0.2,0.8,0.3,1.1l1.1,3.5l1.4,5.1v0.2c0.2,0.7,0.4,1.4,0.6,2.2l0.2,0.5c0.2,0.6,0.4,1.3,0.5,1.9c0.2,0.6,0.1,0.5,0.2,0.8
	c0.1,0.2,0.3,1.1,0.4,1.7l0.2,0.9l0.4,1.6c0,0.3,0.1,0.6,0.2,0.9c0.1,0.3,0.2,1,0.3,1.5c0.1,0.5,0,0.7,0.2,1c0.2,0.4,0.2,1,0.3,1.5
	l0.2,1.1l0.2,1.4c0,0.4,0,0.7,0.1,1.1l0.2,1.4v1.1v1.4v1.1v1.3v1.1v1.3v0c0,0.4,0,0.8,0,1.1v1.3l-0.2,1.1c0,0.4-0.1,0.9-0.2,1.3
	l-0.2,1.1v0c0,0.2,0,0.4,0,0.6c-2.8,0-5.6,0.2-8.4,0.2C143.2,164.7,139,164.7,134.9,164.7L134.9,164.7z M152.2,101.4h2.6
	c0,0.5-0.2,0.9-0.3,1.4l-0.2,0.6c-0.1,0.7-0.2,1.4-0.3,2.2c0,0.8,0,1.5-0.2,2.2v0.6v1.5v0.8v1.3v0.9l0.2,1.2l0.2,0.9
	c0,0.4,0.1,0.8,0.2,1.2c0.1,0.4,0,0.6,0.2,1c0.2,0.3,0.2,0.8,0.3,1.2l0.2,1l0.3,1.2c0,0.3,0.2,0.6,0.3,0.9c0.1,0.3,0.2,0.8,0.4,1.2
	l0.3,0.9c0,0.4,0.3,0.8,0.4,1.2l0.3,0.9l0.5,1.2l0.3,0.8c0.2,0.4,0.3,0.9,0.5,1.3l0.3,0.7c0.2,0.5,0.4,1,0.6,1.5l0.2,0.6
	c0.3,0.7,0.6,1.3,0.8,2l0.8,1.9l0.3,0.9c0.2,0.3,0.3,0.7,0.4,1l0.4,1c0.1,0.3,0.2,0.6,0.4,0.9l0.4,0.9c0,0.3,0.2,0.7,0.4,1
	c0.1,0.3,0.2,0.6,0.3,1c0.1,0.3,0.2,0.6,0.4,1l0.9,2.9c0,0.3,0.2,0.7,0.3,1c0.1,0.3,0.2,0.6,0.2,0.9c0.1,0.3,0.2,0.7,0.2,1
	c0.1,0.3,0.1,0.6,0.2,1c0.1,0.3,0.2,0.7,0.2,1c0.1,0.3,0,0.7,0.2,1c0.2,0.3,0,0.7,0.2,1c0.2,0.3,0,0.7,0,1v1v1v1v1v1v1v1v1l-0.2,1
	c0,0.4,0,0.7-0.2,1v0.4l-6.2,0.3c0-0.4,0-0.7,0.2-1.1c0.2-0.4,0.2-1,0.2-1.5c0.1-0.5,0-0.8,0-1.2c0-0.4,0-0.9,0.1-1.4V158v-1.3v-1.3
	v-1.3v-1.3v-1.3v-1.3V149c0-0.4,0-0.9-0.2-1.3c-0.2-0.4,0-0.9-0.2-1.3c-0.2-0.4-0.1-0.9-0.2-1.3l-0.2-1.3c0-0.4-0.2-0.9-0.2-1.3
	c-0.1-0.5-0.2-0.8-0.2-1.2l-0.3-1.3c0-0.4-0.2-0.8-0.3-1.2c-0.1-0.4-0.2-0.9-0.3-1.3l-0.3-1.2c0-0.4-0.2-0.9-0.4-1.3l-0.3-1.2
	l-0.4-1.3l-0.3-1.1c-0.2-0.5-0.3-0.9-0.4-1.4c-0.1-0.5-0.2-0.7-0.3-1c-0.1-0.3-0.3-1-0.4-1.4l-0.7-2.3c-0.4-1.1-0.7-2.3-1-3.4
	c0-0.3-0.2-0.6-0.2-0.9c-0.2-0.8-0.5-1.7-0.7-2.5c-0.1-0.4-0.2-0.8-0.3-1.2c-0.1-0.4-0.4-1.4-0.6-2.1c-0.2-0.7-0.2-0.9-0.3-1.3
	c-0.1-0.4-0.3-1.3-0.4-1.9c-0.1-0.6-0.2-0.9-0.2-1.3c-0.1-0.5-0.2-1.2-0.3-1.8s0-0.9-0.2-1.3c-0.2-0.4-0.2-1.1-0.2-1.6
	c0-0.5,0-0.9,0-1.3v-1.5v-1.2v-0.6L152.2,101.4z M161.2,100.9l7.3-0.4h1l1.8-0.1l1.8,60.1h0c0.1,1,0.1,2,0,3.1l-3.2,0.2
	c0-0.6,0.2-1.1,0.2-1.6c0.1-0.6,0-0.5,0-0.8s0-1.2,0.2-1.9v-1v-1.3v-1v-1.2v-1V153l-0.2-1c0-0.4,0-0.7-0.2-1.1c-0.2-0.4,0-0.7-0.2-1
	l-0.2-1.1l0,0c-0.1-0.3-0.1-0.7-0.2-1c0-0.4-0.2-0.7-0.2-1.1s-0.2-0.7-0.2-1l-0.3-1.1l-0.3-0.9c0-0.4-0.2-0.7-0.3-1.1l-0.3-0.9
	l-0.4-1.1c0-0.3-0.2-0.6-0.3-0.9c-0.1-0.3-0.3-0.8-0.4-1.2l-0.3-0.8c-0.2-0.4-0.3-0.8-0.5-1.2c-0.2-0.4-0.2-0.5-0.3-0.8
	c-0.1-0.2-0.4-0.9-0.6-1.4l-0.2-0.5c-0.2-0.7-0.5-1.3-0.8-1.9c-0.4-1.1-0.9-2.2-1.3-3.3l-0.3-0.7c-0.1-0.4-0.3-0.7-0.4-1.1l-0.3-0.9
	c-0.2-0.4-0.3-0.7-0.4-1.1l-0.3-0.9c0-0.4-0.2-0.7-0.4-1.1c-0.1-0.4-0.2-0.6-0.3-0.9s-0.2-0.7-0.3-1l-0.3-0.9l-0.3-1
	c0-0.3-0.2-0.6-0.2-1c-0.1-0.3-0.2-0.7-0.2-1l-0.2-1c0-0.3,0-0.7-0.2-1c-0.2-0.3,0-0.7-0.2-1l-0.4-0.9v-1v-1v-1v-1v-1.1v-1v-1
	c0-0.3,0-0.6,0.1-1l0.2-1.1c0-0.3,0.1-0.6,0.2-1c0.1-0.3,0.2-0.7,0.2-1.1c0.1-0.4,0.2-0.7,0.2-1l0.2-0.5h1.8L161.2,100.9z
	 M149.6,37.1h-30.5v-3.2h31.6v3.2H149.6z M119.1,18.6h31.6v11.5h-31.6V18.6z M109.3,76.8c6.8-10.8,13.8-21.9,13-36h25.3
	c-0.9,14.1,6.1,25.2,12.9,36c4.3,6.1,7.6,12.8,10,19.8h-2.7l-2.3,0.1h-10.9c-1.7,0-3.5,0.2-5,0.3h-1.5h-5.9h-20l-4.2-0.1h-2.5
	l-4-0.2h-2.8l-4-0.2l-3-0.2l-2.9-0.2v0C101.6,89.3,105,82.8,109.3,76.8L109.3,76.8z M171.6,168.8c0,0.2-8.9,23.5-4.8,30.6
	c3.5,6.2,5.4,26,4.5,37.9c0,0.6,0,1.1-0.2,1.7h0c-0.7,3.6-2.6,6.8-5.5,9.1c-2.8,2.3-6.4,3.5-10,3.5h-41.2c-3.9,0-7.6-1.4-10.5-3.9
	c-2.9-2.6-4.7-6.1-5.2-9.9v-0.3c-0.9-11.9,1-31.7,4.5-37.9c4.1-7.2-4.7-30.4-4.8-30.6c-0.1-0.2-0.4-1-0.5-1.5h2.5l7.9,0.4l4,0.2
	l8,0.3h3.5h11l0.2,0c4.2,0,8.4,0,12.5-0.2c3.3,0,6.6-0.2,9.8-0.3h0.4c2.8,0,5.7-0.2,8.5-0.4h1.4l4.6-0.3
	C171.9,167.8,171.8,168.2,171.6,168.8L171.6,168.8z"/>
</svg>
