<?xml version="1.0" encoding="utf-8"?>
<!-- Generator: Adobe Illustrator 26.1.0, SVG Export Plug-In . SVG Version: 6.00 Build 0)  -->
<svg version="1.1" id="Layer_1" xmlns="http://www.w3.org/2000/svg" xmlns:xlink="http://www.w3.org/1999/xlink" x="0px" y="0px"
	 viewBox="0 0 269.7 270" style="enable-background:new 0 0 269.7 270;" xml:space="preserve">
<style type="text/css">
	.st0{opacity:0.5;fill:#4374BA;}
	.st1{opacity:0.5;}
	.st2{fill:#4771B7;}
	.st3{opacity:0.5;fill:#4771B7;}
</style>
<path class="st3" d="M57.4,18.5c-2.1,0.2-3.7,2-3.7,4.1v220.5h-19c-1.1,0-2.2,0.4-3,1.2c-0.8,0.8-1.2,1.9-1.2,3c0,1.1,0.4,2.2,1.2,3
	c0.8,0.8,1.9,1.2,3,1.2H235c1.1,0,2.2-0.4,3-1.2c0.8-0.8,1.2-1.9,1.2-3c0-1.1-0.4-2.2-1.2-3c-0.8-0.8-1.9-1.2-3-1.2h-19V22.7
	c0-2.3-1.9-4.1-4.1-4.1h-154C57.7,18.5,57.6,18.5,57.4,18.5L57.4,18.5z M62,26.8h145.7v216.3H62V26.8z M173.8,117.9
	c-9.4,0-17,7.7-17,17.1c0,9.4,7.7,17.1,17,17.1s17.1-7.7,17.1-17.1C190.9,125.6,183.2,117.9,173.8,117.9z M173.8,126.2
	c4.9,0,8.8,3.9,8.8,8.7c0,4.9-3.9,8.8-8.8,8.8s-8.7-3.9-8.7-8.8S169,126.2,173.8,126.2z"/>
</svg>
