<?xml version="1.0" encoding="utf-8"?>
<!-- Generator: Adobe Illustrator 26.2.1, SVG Export Plug-In . SVG Version: 6.00 Build 0)  -->
<svg version="1.1" id="Layer_1" xmlns="http://www.w3.org/2000/svg" xmlns:xlink="http://www.w3.org/1999/xlink" x="0px" y="0px"
	 viewBox="0 0 269.7 270" style="enable-background:new 0 0 269.7 270;" xml:space="preserve">
<style type="text/css">
	.st0{fill:#4771B7;enable-background:new    ;}
	.st1{opacity:0.5;fill:#4771B7;enable-background:new    ;}
</style>
<path class="st1" d="M134.9,20.9c-46.6,0-86.4,78.2-86.4,141.9c0,54.9,31.5,86.4,86.4,86.4s86.4-31.5,86.4-86.4
	c0-30.5-9.5-65.7-25.3-93.6C178.9,38.3,156.5,20.9,134.9,20.9L134.9,20.9z M134.9,240.9c-29.2,0-78.2-10.2-78.2-78.2
	c0-29.2,8.9-62.7,24-89.7c15.8-27.9,35.5-44,54.2-44c18.7,0,38.4,16.1,54.2,44c15.1,26.9,24,60.4,24.3,89.7
	C213,230.8,164.1,240.9,134.9,240.9L134.9,240.9z"/>
</svg>
