<?xml version="1.0" encoding="utf-8"?>
<!-- Generator: Adobe Illustrator 26.1.0, SVG Export Plug-In . SVG Version: 6.00 Build 0)  -->
<svg version="1.1" id="Layer_1" xmlns="http://www.w3.org/2000/svg" xmlns:xlink="http://www.w3.org/1999/xlink" x="0px" y="0px"
	 viewBox="0 0 269.7 270" style="enable-background:new 0 0 269.7 270;" xml:space="preserve">
<style type="text/css">
	.st0{fill:#010101;}
	.st1{opacity:0.5;fill:#4374BA;}
	.st2{opacity:0.5;}
	.st3{fill:#4771B7;}
	.st4{opacity:0.5;fill:#4771B7;}
</style>
<g class="st2">
	<g>
		<path class="st3" d="M117.5,225.6v-5.2h13.4v12.2c-1.3,1.3-3.2,2.4-5.6,3.3c-2.5,0.9-5,1.4-7.5,1.4c-3.2,0-6-0.7-8.4-2
			c-2.4-1.4-4.2-3.3-5.4-5.8c-1.2-2.5-1.8-5.2-1.8-8.2c0-3.2,0.7-6,2-8.5c1.3-2.5,3.3-4.4,5.9-5.7c2-1,4.4-1.5,7.3-1.5
			c3.8,0,6.8,0.8,8.9,2.4c2.1,1.6,3.5,3.8,4.1,6.6l-6.2,1.2c-0.4-1.5-1.3-2.7-2.4-3.6c-1.2-0.9-2.7-1.3-4.5-1.3
			c-2.7,0-4.9,0.9-6.5,2.6c-1.6,1.7-2.4,4.3-2.4,7.6c0,3.6,0.8,6.4,2.4,8.2c1.6,1.8,3.7,2.7,6.4,2.7c1.3,0,2.6-0.3,3.9-0.8
			c1.3-0.5,2.4-1.1,3.4-1.9v-3.9L117.5,225.6L117.5,225.6z M136.4,236.9v-30.7h6.2v30.7H136.4z M148.5,236.9v-30.7h21v5.2h-14.8v7.3
			h12.8v5.2h-12.8v13L148.5,236.9z"/>
		<path class="st3" d="M229.4,76.7l-57.1-57.1c-0.7-0.7-1.6-1.1-2.7-1.1h-119l0,0c-3.2,0-6,1.3-8.1,3.4c-2.1,2.1-3.4,5-3.4,8.1V240
			c0,3.2,1.3,6,3.4,8.1c2.1,2.1,5,3.4,8.1,3.4H219c3.2,0,6-1.3,8.1-3.4c2.1-2.1,3.4-5,3.4-8.1V79.3
			C230.5,78.4,230.1,77.4,229.4,76.7z M217.8,75.6l-44.2-0.1l0,0l-0.1-44.2L217.8,75.6z M203.3,244h-137l0-40.8
			c0-1.1,0.5-2.1,1.2-2.8c0.7-0.7,1.7-1.2,2.8-1.2h128.9c1.1,0,2.1,0.5,2.8,1.2c0.7,0.7,1.2,1.7,1.2,2.8V244z M169.8,82.9l53.2,0.2
			V240c0,1.1-0.5,2.1-1.2,2.8c-0.7,0.7-1.7,1.2-2.8,1.2h-8.2v-40.8c0-3.2-1.3-6-3.4-8.1c-2.1-2.1-5-3.4-8.1-3.4H70.4
			c-3.2,0-6,1.3-8.1,3.4c-2.1,2.1-3.4,5-3.4,8.1V244h-8.2c-1.1,0-2.1-0.5-2.8-1.2c-0.7-0.7-1.2-1.7-1.2-2.8V30
			c0-1.1,0.5-2.1,1.2-2.8c0.7-0.7,1.7-1.2,2.8-1.2H166l0.1,52.9c0,0.1,0,0.2,0,0.3C166.1,81.2,167.8,82.9,169.8,82.9"/>
	</g>
</g>
</svg>
