<?xml version="1.0" encoding="utf-8"?>
<!-- Generator: Adobe Illustrator 26.2.1, SVG Export Plug-In . SVG Version: 6.00 Build 0)  -->
<svg version="1.1" id="Layer_1" xmlns="http://www.w3.org/2000/svg" xmlns:xlink="http://www.w3.org/1999/xlink" x="0px" y="0px"
	 viewBox="0 0 269.7 270" style="enable-background:new 0 0 269.7 270;" xml:space="preserve">
<style type="text/css">
	.st0{fill:#4771B7;enable-background:new    ;}
	.st1{opacity:0.5;fill:#4771B7;enable-background:new    ;}
	.st2{opacity:0.5;enable-background:new    ;}
	.st3{fill:#4771B7;}
</style>
<g class="st2">
	<path class="st3" d="M176.8,142.4c0-1.2-0.3-3.1-0.7-4.5l-15.6-56.8c-0.2-0.8-0.5-2.2-0.6-3l-3.7-37.6c1.2-1.1,2.5-3,2.4-5
		c0-1.2-0.7-2.2-1.4-3c1-1,1.3-2.3,1.3-3.8V17.2c0-3-2.1-5.4-5.2-5.4h-37c-3.1,0-5.4,2.4-5.4,5.4v11.5c0,1.5,0.5,2.8,1.4,3.8
		c-0.7,0.8-1.3,1.8-1.3,3c-0.1,2,1.3,4,2.4,5.1l-3.7,37.6c-0.1,0.9-0.4,2.2-0.6,3l-15.7,56.8c-0.3,1.3-0.6,3.2-0.6,4.5l-1.3,90.5
		c0,1.3,0.2,3.3,0.5,4.6l2.9,11.2c0.6,2.2,2.6,4.2,4.9,4.9l9.4,2.6c1.3,0.3,3.4,0.7,4.7,0.8l9.3,0.8c1.2,0.1,3.2,0.4,4.4,0.4h14.4
		c1.2,0,3.2-0.3,4.3-0.4l9.3-0.7c1.3-0.1,3.4-0.5,4.7-0.9l9.5-2.6c2.3-0.7,4.4-2.7,4.9-4.9l2.9-11.2c0.3-1.3,0.6-3.2,0.5-4.6
		L176.8,142.4z M150.6,36.7c-0.8,1.4-1.4,3.6-1.2,5.1l2.4,26H118l2.5-26c0.1-1.5-0.3-3.5-1.2-4.7c0.8-0.7,1.1-2.8,1.3-2.8h28.7
		C149.5,34.2,149.9,36.1,150.6,36.7L150.6,36.7z M116.6,20.2H153v7.1c0,0.4-2.3,1.3-3,1.3h-30.1c-0.6,0-0.5-0.9-3.3-1.3L116.6,20.2z
		 M170.7,235.7l-2.8,11l-9.4,2.6c-0.9,0.3-2.4,0.5-3.3,0.6l-9.3,0.2c-1.1,0.1-2.8-0.3-3.9-0.3h-14.4c-1.1,0-2.8,0.4-3.9,0.3
		l-9.3-0.4c-0.9-0.1-2.4-0.2-3.3-0.5l-9.4-2.4L99,235.7c-0.2-0.7-0.3-2-0.3-2.7l1.3-90.5c0-0.7,0.2-2.1,0.4-2.7L116,83
		c0.3-1.2,0.7-3.5,0.8-4.7l0.7-7.8h34.6l0.7,7.8c0.1,1.2,0.5,3.3,0.8,4.5l15.6,56.9c0.2,0.7,0.4,2,0.4,2.8L171,233
		C171,233.7,170.9,235.1,170.7,235.7L170.7,235.7z"/>
	<path class="st3" d="M159.5,154.2c-8.6-5.5-15.8-7.8-24.6-7.8c-8.9,0-16,2.3-24.6,7.8c-0.8,0.5-1.2,1.3-1.1,2.2l6.4,71.5
		c0.1,1.2,1.1,2.3,2.4,2.3h33.8c1.2,0,2.2-1.1,2.4-2.3l6.4-71.4C160.6,155.6,160.2,154.7,159.5,154.2L159.5,154.2z M149.6,224.6
		h-29.5l-6.1-67.4c7.3-4.5,13.3-6.1,20.9-6.1c7.5,0,13.6,1.6,20.9,6.1L149.6,224.6z"/>
</g>
</svg>
