<?xml version="1.0" encoding="utf-8"?>
<!-- Generator: Adobe Illustrator 26.1.0, SVG Export Plug-In . SVG Version: 6.00 Build 0)  -->
<svg version="1.1" id="Layer_1" xmlns="http://www.w3.org/2000/svg" xmlns:xlink="http://www.w3.org/1999/xlink" x="0px" y="0px"
	 viewBox="0 0 269.7 270" style="enable-background:new 0 0 269.7 270;" xml:space="preserve">
<style type="text/css">
	.st0{fill:#010101;}
	.st1{opacity:0.5;fill:#4374BA;}
	.st2{opacity:0.5;}
	.st3{fill:#4771B7;}
	.st4{opacity:0.5;fill:#4771B7;}
</style>
<g class="st2">
	<g>
		<path class="st3" d="M96.9,248.5c1,6.6,7.1,11.7,13.7,11.7h48.7c7.1,0,12.7-5.1,13.7-11.7c1.5-8.6,0.5-16.7-1.5-25.3
			c-3.5-14.7-2.5-38-1.5-50.7c1-12.7,6.1-23.8,1-54.2l-18.2-88.7c5.6-11.2-1-18.8-1-18.8c-0.5-1-1.5-1-3-1h-27.9c-1,0-2,0.5-3,1
			c-0.5,0.5-7.1,8.1-1,18.8l-18.2,89.2c-5.1,30.9,0,40,1,55.2c1,12.2,2,35.5-1.5,49.7C96.3,231.8,95.3,239.9,96.9,248.5L96.9,248.5z
			 M122.7,17.4h23.8c0.5,1.5,1.5,4.6-0.5,8.1h-23.3C121.7,21.5,122.2,18.9,122.7,17.4L122.7,17.4z M106,120.3l17.7-87.2h21.8
			l17.7,87.2c5.6,30.9,0,34.5-1.5,59.8c-1,2.5-6.1,3-13.7,2.5c-2,0-4.1,1.5-4.1,3.5c0,2,1.5,4.1,3.5,4.1c4.6,0,9.1,0.5,13.7-1v11.7
			c-1.5,2.5-6.1,3-13.2,2.5c-2,0-4.1,1.5-4.1,3.5s1.5,4.1,3.5,4.1c4.6,0,9.6,0.5,13.7-1c0.5,4.6,1,9.1,1.5,12.7c-2,3-10.1,2-15.2,2
			c-2,0-4.1,1.5-4.1,3.5c0,2,1.5,4.1,3.5,4.1c5.6,0.5,12.2,1,17.2-1c1,5.1,1,10.6,0,16.7c-0.5,3-3,5.1-6.1,5.1h-48.7
			c-3,0-5.6-2-6.1-5.1c-1-5.6-0.5-11.2,0-16.2c5.1,2,11.7,1.5,17.2,1c2,0,3.5-2,3.5-4.1c0-2-2-3.5-4.1-3.5c-4.6,0.5-13.2,1-15.2-2
			c1-4.1,1.5-8.1,1.5-12.7c4.1,1.5,9.1,1.5,13.7,1c2,0,3.5-2,3.5-4.1s-2-3.5-4.1-3.5c-7.1,0.5-11.7,0-13.2-2.5v-11.7
			c4.1,1.5,9.1,1,13.7,1c2,0,3.5-2,3.5-4.1c0-2-2-3.5-4.1-3.5c-7.6,0.5-12.2,0-13.7-2.5C106,153.2,100.9,154.8,106,120.3L106,120.3z
			"/>
		<path class="st3" d="M134.9,152.7c11.7,0,21.8-9.6,21.8-21.8c0-8.1-4.6-15.2-11.7-19.3h-0.5c-14.7-7.6-30.9,3.5-30.9,19.3
			C113.1,143.1,123.2,152.7,134.9,152.7L134.9,152.7z M124.2,140.6c10.1-2,18.8-9.1,21.3-17.7C157.2,136.5,136.4,154.2,124.2,140.6z
			 M138.9,117.8c-1,7.6-8.1,14.2-17.7,15.2C119.7,123.3,128.8,115.2,138.9,117.8z"/>
	</g>
</g>
</svg>
