<?xml version="1.0" encoding="utf-8"?>
<!-- Generator: Adobe Illustrator 26.1.0, SVG Export Plug-In . SVG Version: 6.00 Build 0)  -->
<svg version="1.1" id="Layer_1" xmlns="http://www.w3.org/2000/svg" xmlns:xlink="http://www.w3.org/1999/xlink" x="0px" y="0px"
	 viewBox="0 0 269.7 270" style="enable-background:new 0 0 269.7 270;" xml:space="preserve">
<style type="text/css">
	.st0{opacity:0.5;fill:#4374BA;}
	.st1{opacity:0.5;}
	.st2{fill:#4771B7;}
</style>
<g class="st1">
	<g>
		<path class="st2" d="M150.7,144.5c15.7,0,28.7,2.3,40.8,8.3c8.5,4.2,17,9,20.3,18.6c2.8,8.1,3.4,16.6-1.5,24.5
			c-2.5,4-4.4,8.2-6.7,12.3c-1.9,3.3-3.8,6.8-6.1,9.8c-1.7,2.1-2.7,4.2-3,6.9c-0.9,8.9-6.5,14.6-13.5,19.4c-1.4,1-2.6,2.6-3.2,4.2
			c-4.4,12.1-14.3,17.9-26.9,15.5c-1.1-0.2-2.7-0.3-3.5,0.3c-9.3,7.4-19.3,6.6-29.7,2.8c-1.7-0.6-3.8-0.7-5.7-0.5
			c-5.5,0.6-10.5-0.7-15.3-3.5c-1.3-0.8-3.3-1.1-4.8-0.8c-15.9,3.5-28.1-3.4-33.6-18.7c-5.2-14.2-3.3-27.8,2.8-41.2
			c8.5-18.8,21.6-33.5,39.5-43.8C116.8,149.2,134.3,144.7,150.7,144.5L150.7,144.5z M99.6,259c3.3,2.7,7.6,4,11.4,3.1
			c9.8-2.2,15.3-9.2,18.1-18.2c3.5-11.2-0.7-20.9-6.7-30.2c-0.6-0.9-0.2-2.5-0.3-3.8c1.2,0.4,3,0.3,3.6,1.2c1.8,2.4,3.5,5,4.7,7.8
			c5.9,12.9,6.5,25.5-2.7,37.3c-2,2.6-4.7,4.6-7.3,7.2c2.1,0.6,3.5,1.1,4.9,1.5c9.3,2.5,18.3-0.8,23.1-8.4
			c3.4-5.5,5.3-11.6,5.9-18.1c1.5-15.6-4.1-28.7-14.2-40.3c-1.1-1.2-2.4-2.5-0.7-4c1.6-1.4,2.8-0.2,4,1c15,16.1,20.9,40.4,10.3,61.1
			c-0.5,1.1-0.9,2.2-1.5,3.3c9.4,1.9,17-1.8,20.5-10.4c6.6-16.2,4.8-38.3-10.5-51c-1.3-1.1-2.6-2.5-1-3.8c0.7-0.6,3.1-0.2,4,0.6
			c10,8.6,14.9,19.7,15.4,32.8c0.1,3.7,0,7.5,0,11.2c5.1-2.9,8.8-8.4,9.6-13.9c0.8-5.4-0.8-10.3-3.1-15.1c-0.5-1-0.2-3.1,0.5-3.7
			c1.4-1.1,2.6,0,3.3,1.6c1,2.4,2.2,4.7,3.8,8c2-3.9,3.7-7.1,5.5-10.4c1.7-3.2,3.4-6.4,5.1-9.6c1.4-2.5,2.7-5.1,4.1-7.6
			c-0.3-0.1-0.5-0.3-0.8-0.4c-11.4,7.7-18.7,8-31.3,1.9c-3.6-1.8-7.5-3.4-11.5-4c-23-3.3-42.5,3.6-58.1,21
			c-7.3,8.1-12.2,17.7-16.5,27.6c-4.2,9.7-11.6,14.9-20.1,14.2c-1.9-0.1-3.8-0.8-5.8-1.3c3.2,6.3,8,10.1,15.1,11.1
			c11.2,1.5,21.8-2.8,25-14.3c0.7-2.3,0.7-4.8,1.3-7.1c0.2-0.9,1.4-1.4,2.2-2.2c0.7,0.8,1.4,1.5,2,2.4c0.2,0.4,0.1,1,0,1.5
			C110.1,247.1,106.9,254.1,99.6,259L99.6,259z M62.4,211.1c-0.8,3.1-1.9,6.2-2.3,9.4c-0.8,6.4-1,12.8,2.9,18.5
			c3.1,4.6,8.3,6.3,13.5,4.4c5.6-2,8.4-6.6,10.7-11.7c4.9-11.1,10.7-21.6,19.1-30.5c11.3-12,25.4-18.5,41.6-20.6
			c12-1.5,23.5,0.3,34.2,6.4c6.1,3.5,12.7,3.1,19,0.1c6-3,8.6-7.9,7.1-13.1c-1.4-4.9-4.8-8.3-8.8-11.1c-0.7-0.5-2-0.3-2.9,0.1
			c-5.6,2-9.2,5.9-11.6,11.2c-0.5,1-2,1.5-3.1,2.2c-0.3-1.3-1.3-3-0.8-3.8c1.9-3.3,4.1-6.5,6.5-9.4c1.5-1.7,3.7-2.8,6-4.4
			c-6.9-3.9-13.9-6.5-21.3-7.9c-0.8-0.2-2,0.6-2.7,1.2c-5.3,4.2-8.2,9.6-8.7,16.4c-0.1,1.5-0.2,3.4-2.5,3.2
			c-2.5-0.3-2.2-2.3-1.9-3.9c0.6-2.9,1-5.9,2.2-8.4c1.6-3.4,3.9-6.5,6-9.9c-4.8-0.2-9.6-0.7-14.4-0.6c-4.4,0.1-9.2-0.2-11.6,5
			c-0.7,1.5-1.7,3-1.9,4.6c-0.4,3.3-0.2,6.7-0.5,10c-0.1,1.1-0.6,2.8-1.4,3.2c-1.8,0.8-2.6-0.7-2.8-2.3c-0.1-0.9-0.3-1.9-0.4-2.8
			c-0.4-5.4,0.5-10.5,2.8-15.8c-7.7,2.1-15.1,4.5-22.4,7.2c-1.1,0.4-2.1,2.2-2.4,3.6c-1.7,6.9,0.1,13.3,3.7,19.2
			c0.9,1.5,1.1,3-0.6,3.7c-0.8,0.3-2.7-0.5-3.2-1.4c-3-5-5.1-10.3-4.9-16.3c0-1.6,0-3.2,0-5.9c-5.9,4.3-11,8.3-16.2,12
			c-3.7,2.6-4.5,6-3.6,10.2c1.1,5,4,8.9,7.2,12.7c1.1,1.3,2.9,2.8,0.8,4.5c-2,1.5-3.1-0.5-4.3-1.7c-4.4-4.7-7.3-10.1-9-16.7
			c-4.1,5.6-8,11.2-11.4,17.1c-2.8,4.8-2.1,10.8,2.1,14.6c2.9,2.7,6.8,4.3,10.1,6.5c0.9,0.6,1.3,1.8,1.9,2.7c-1.1,0.5-2.2,1-3.3,1.4
			c-0.4,0.1-1-0.3-1.5-0.4C70.9,221.3,66,217.4,62.4,211.1L62.4,211.1z"/>
		<path class="st2" d="M47.3,7.9c22.1,0.4,43.9,10.8,61.4,30.5C120.4,51.6,127.9,67,131,84.3c2,11.1,1.4,22-2.5,32.8
			c-3.3,9.2-18.9,16.8-27.4,14.4c-4.5-1.3-9.5-0.9-14.2-1.4c-1.6-0.2-3.3-0.4-4.8-0.9c-4.1-1.3-8-1.3-12.4-0.3
			c-6.2,1.5-12-1-17.1-4.5c-2-1.4-3.9-2-6.3-2c-11.9,0.3-19.5-5.9-22.1-17.6c-0.2-1-0.8-2.2-1.6-2.7C13.8,97.1,10.8,89,10.4,79.5
			c-0.1-2.5-0.4-4.6-1.9-6.7c-2.5-3.7-3-8-2.2-12.4c0.5-2.4,0.1-4.4-1.4-6.4c-7.7-10.7-6.3-24,3.4-33C18.5,11.4,27.9,7.9,47.3,7.9z
			 M75.6,74l2.7,2.6c0,0.4,0.2,0.9,0,1.2c-6.8,12-16,21.3-29.6,25c-6.2,1.7-12.8,1.9-19.4,2.8c0-0.2,0,0.5,0.2,1
			c2.4,8,9.7,12.5,18.6,11.2c3.5-0.5,7-1.3,10.4-2.4c12-4.1,20.9-11.6,25-24c0.5-1.5,1.2-2.9,3.1-2.3c1.9,0.6,1.7,2.1,1.2,3.6
			c-3.1,10-9.3,17.5-18.3,22.6c-4.1,2.3-8.6,4-12.8,5.9c5.5,4.5,14.6,4.6,20.5,0.1c2-1.6,3.6-3.8,5.7-5.4c0.7-0.6,2.2-0.3,3.3-0.4
			c0,1.1,0.5,2.5-0.1,3.2c-1.3,2-3.1,3.6-5.2,6c9.2,0.9,18,1.8,27.7,2.7c-1-0.9-1.2-1.1-1.5-1.2c-0.3-0.2-0.5-0.3-0.8-0.5
			c-7.2-5.1-11.1-12-10.5-20.8c0.5-7.3,0.4-14.4-2.4-21.3c-7-17.3-18.9-29.4-36.8-35.1c-9.2-3-18.8-3.7-28.4-4.1
			C16.7,44.1,10.7,39,8.7,27.8c-0.4,0.3-0.7,0.5-0.9,0.8C1,37.8,5.9,54.3,16.6,58.4c4.8,1.8,9.6,1.5,14.4,0c1-0.3,2.4,0.7,3.6,1.1
			c-0.8,1-1.3,2.6-2.3,3c-1.9,0.8-4,1.2-6,1.5c-5.5,0.8-10.5-0.7-15.3-3.4c-0.9,3.9-0.3,7.5,1.7,10.4c5.9,8.6,20.8,11.2,30.6,5.4
			c5.4-3.2,9.6-7.6,13-12.9c0.9-1.3,1.8-2.9,3.7-1.6c1.9,1.2,1,2.7,0,4.1c-1.5,2.1-2.9,4.4-4.7,6.3c-8.3,9.1-18.3,13.8-30.8,11
			c-3.3-0.7-6.4-2.1-9.8-3.2c0.2,1.5,0.3,2.9,0.6,4.2c1.8,8.2,6.5,14.8,15.9,15.8c12.9,1.4,24.1-2.5,33.1-11.5
			C68.7,84.3,71.9,78.9,75.6,74L75.6,74z M68,16.9L67.8,16c-4.8-1-9.5-2.3-14.4-2.9c-3-0.4-6.5-0.4-9.1,0.8
			c-4.6,2.2-6.9,6.6-7.1,11.8c-0.1,1.6,0.3,3.2-0.1,4.7c-0.2,1-1.4,1.8-2.1,2.6c-0.7-0.7-1.9-1.4-2.1-2.2c-0.4-1.7-0.7-3.6-0.2-5.3
			c1.2-4.3,2.7-8.6,4.1-12.8c-7.2,0.5-14.6,2.1-20.3,8.1c-4.7,4.8-4.2,11.9,1.2,15.9c3.3,2.4,7.1,3.4,11.2,3.4
			c9.3,0.2,18.5,1.3,27.5,3.7c24.1,6.3,47.3,33,43.5,61.5c-0.7,5,1.3,9.3,4.3,13.1c6.7,8.3,15.6,7.1,19.9-2.6
			c0.5-1.1,1.1-2.4,1.1-3.6c0-1.4-0.1-3.2-1-4.1c-3.1-3.3-7-5.2-11.7-5.2c-1.1,0-2.1-0.2-3.4-0.3c3-5.7,6.5-5.3,17.7,1.3
			c0.2-0.5,0.5-1,0.5-1.5c-0.3-6-0.6-12.1-1-18.1c-0.1-0.7-1-1.7-1.7-2.1c-3.8-2-7.8-3.5-12.3-2.8c-1.7,0.3-3.4,1.1-5.2,1.2
			c-1,0.1-2.1-0.7-3.1-1c0.5-1.1,0.9-2.4,1.7-3.1c0.8-0.7,2.1-0.7,3.2-1c5.2-1.3,10.3-0.5,15.6,1c-1.9-5.4-4.2-10.5-6.3-15.7
			c-0.9-2.3-2.7-3.3-4.9-3.8c-5-1.1-9.4,0.2-13.8,2.7c-0.9,0.5-2.4,0.1-3.6,0.1c0.4-1.2,0.4-3,1.3-3.6c1.8-1.3,4-2.4,6.1-3
			c3.1-0.8,6.3-1,10.2-1.5c-4.2-4.9-8.3-9.3-11.9-14.1c-2.6-3.5-5.5-2.9-8.8-1.7c-4.6,1.7-8.5,4.4-11.3,8.6c-1,1.4-2.4,2.6-3.8,1.1
			c-0.6-0.6-0.3-2.7,0.3-3.7c1.2-1.8,2.7-3.6,4.4-4.8c3.4-2.4,7.2-4.5,11.3-7c-4.8-2.9-9.6-6-14.6-8.8c-4.4-2.5-8-1.9-11.4,1.9
			c-2.4,2.7-4.3,5.9-6.3,8.9c-0.9,1.4-1.7,3.4-3.7,2c-0.7-0.5-0.7-2.8-0.2-4C59.7,24.6,63.3,20.2,68,16.9L68,16.9z"/>
		<path class="st2" d="M161,77.5c0.6-23,9.5-42.2,26.9-57.4C199.7,9.8,213.3,2.7,229,0.7c9.6-1.2,19.4-1.4,28.6,3.2
			c7.3,3.7,12.4,14.4,11.1,22.5c-0.8,5-0.6,10.2-1.6,15.2c-1,4.8-1.5,9.4-0.6,14.3c0.9,5.1-1.5,9.6-4.1,13.9
			c-0.9,1.5-1.5,3.4-1.5,5.2c0,10.5-5.1,16.9-15.3,19.2c-0.9,0.2-2,0.8-2.5,1.5c-4.3,7.7-11.5,10-19.7,10.8c-2,0.2-3.9,1.1-5.9,1.5
			c-3.4,0.7-6.8,1.7-10.3,1.9c-2.3,0.1-4.3,0.2-6.4,1.6c-11.2,7.3-23.2,4.4-31.5-6.9C163.3,96.5,160.7,87.5,161,77.5L161,77.5z
			 M245.5,89.5c6.2-1.4,9.8-5.1,10.4-11.1c1.4-12.4-6.1-30.2-22-35.5c-1.6-0.5-3.2-0.9-2.5-3.1c0.8-2.4,2.6-1.6,4.1-1
			c6.1,2.1,11.5,5.3,15.2,10.6c3.4,4.9,6.2,10.2,9.1,15.2c3.9-5.1,3-13.2-2.5-18.5c-1-0.9-2.2-1.8-2.8-2.9c-0.4-0.8-0.4-2.2,0.1-3
			c0.2-0.4,2-0.5,2.7,0c1.6,1.1,3,2.5,5,4.2c0.7-7.5,1.3-14.5,1.9-22c-5.3,7.2-11.7,10.7-20.2,10c-19.2-1.5-32.5,8-42.5,23.3
			c-6,9.2-7.5,19.9-8,30.7c-0.1,3-0.1,6.2-0.8,9.1c-1.6,6.7-5.4,11.5-13.3,12.5c1,0.8,1.4,1.2,1.9,1.5c8.7,5,22.8-1.6,24.2-11.5
			c0.5-3.2-0.6-6.6-0.7-9.9c0-1,0.7-2.1,1.1-3.1c1,0.5,2,1,3,1.7c0.3,0.3,0.4,0.9,0.5,1.4c1.7,6,1.3,11.8-1.8,17.3
			c4.5,0.9,8.5-0.4,11.1-3.7c5.5-7,6.5-17.1,1.3-24.4c-3-4.2-7.3-7.4-10.9-11.1c-0.8-0.8-0.9-2.2-1.3-3.3c1.1-0.1,2.5-0.7,3.3-0.3
			c2,1,3.8,2.5,5.6,3.9c9.5,7.5,13,18.9,9.4,30.4c-0.5,1.6-1.2,3.2-1.8,4.9c9.9,0.4,17.3-7.2,16.9-17.5
			c-0.5-12.8-6.1-22.9-16.5-30.3c-2.5-1.7-5.3-2.9-7.8-4.6c-0.8-0.5-1-1.9-1.5-2.9c1-0.4,1.9-1.1,2.9-1c1.1,0.1,2.2,0.7,3.2,1.2
			C238,55.9,246.8,69.7,245.5,89.5L245.5,89.5z M180.6,33.5c-3,5-5.5,9.3-8,13.6c-1.4,2.4-1.3,4.9,0.5,6.7c2.8,2.8,6.1,5.2,9.3,7.6
			c1.3,0.9,3.2,1.4,2.1,3.5c-0.9,1.8-2.6,1.5-4,0.6c-3.9-2.6-7.8-5.3-12.2-8.3c-0.8,5-1.8,10.1-2.3,15.2c-0.2,1.7,0.7,3.9,1.8,5.4
			c3.1,4.2,7.6,5.1,12.6,4.9c1,0,2,1.2,3,1.8c-0.9,0.8-1.7,2.2-2.7,2.4c-1.9,0.3-4,0.3-5.9-0.2c-3-0.8-5.9-2.1-9.5-3.5
			c1,3.7,1.8,7.2,2.9,10.5c0.6,1.8,1.7,3.6,2.9,5.2c2.6,3.5,6.1,5.3,10.4,4c4.6-1.5,6.5-5.4,7.1-9.9c0.4-3.1,0.4-6.3,0.6-9.4
			c1-17.6,6.6-33,20.7-44.4C220,31,231.2,26.4,244.4,28c5.3,0.6,9.9-1.3,13.6-5.1c5.2-5.2,4.2-11.2-2.2-14.7
			c-1.2-0.6-2.6-0.9-3.7-1.6c-2-1.1-3.3-0.4-4.6,1.1c-2.5,3-3.8,6.4-4,10.3c-0.1,1.1-1.4,2.1-2.1,3.1c-0.7-1.1-2.2-2.2-2.1-3.2
			c0.5-3.3,1.4-6.4,2.4-9.6c0.4-1.2,1.2-2.3,2.1-3.8c-4.2,0-7.8-0.1-11.4,0c-5.9,0.2-8,2-8.7,7.9c-0.4,3,0.3,6.2,0.4,9.3
			c0,1-0.7,1.9-1.1,2.9c-1-0.6-2.2-0.9-2.9-1.7c-0.6-0.6-0.7-1.8-0.8-2.7c-0.1-4.2,0-8.4,0-13.1c-4.3,1.8-9,3.8-13.7,5.8
			c-0.5,0.2-1,0.9-1.1,1.4c-0.3,3-0.6,6-0.4,8.9c0.1,1.7,1.5,3.2,1.9,4.9c0.3,1.2,0.4,3.3-0.3,3.8c-1.7,1.2-2.8-0.2-3.6-1.7
			c-0.6-1.1-1.3-2.2-1.6-3.4c-0.8-3.1-1.4-6.2-2.1-9.7c-4,3.4-7.9,6.8-11.8,10.1c-1.9,1.5-2.1,3.3-1.5,5.6c1.3,4.9,4.3,8.5,8.1,11.7
			c0.7,0.6,0.5,2.3,0.8,3.4c-1.1,0-2.3,0.1-3.4,0c-0.4-0.1-0.8-0.6-1.2-0.9C185.3,43.7,182.6,39.5,180.6,33.5L180.6,33.5z"/>
	</g>
</g>
</svg>
