<?xml version="1.0" encoding="utf-8"?>
<!-- Generator: Adobe Illustrator 26.2.1, SVG Export Plug-In . SVG Version: 6.00 Build 0)  -->
<svg version="1.1" id="Layer_1" xmlns="http://www.w3.org/2000/svg" xmlns:xlink="http://www.w3.org/1999/xlink" x="0px" y="0px"
	 viewBox="0 0 269.7 270" style="enable-background:new 0 0 269.7 270;" xml:space="preserve">
<style type="text/css">
	.st0{fill:#4771B7;enable-background:new    ;}
	.st1{opacity:0.5;fill:#4771B7;enable-background:new    ;}
	.st2{opacity:0.5;enable-background:new    ;}
	.st3{fill:#4771B7;}
</style>
<path class="st1" d="M207.8,91.3c0-1.2-0.5-2.4-1.2-3.4l-20.5-24.6c2.9-2.9,4.8-7,4.8-11.3c0-8.7-7.2-15.9-15.9-15.9H94.6
	c-8.7,0-15.9,7.2-15.9,15.9c0,4.6,1.9,8.4,4.8,11.3L63.1,87.9c-0.7,1-1.2,2.2-1.2,3.4c0,4.8,4.3,8.4,9.1,10.8
	c-3.1,5.1-4.8,10.8-4.8,16.6V202c0,17.6,15.6,31.8,34.9,31.8h67.4c19.3,0,34.9-14.2,34.9-31.8l0-83.3c0-5.8-1.7-11.6-4.8-16.6
	C203.5,99.7,207.8,96.1,207.8,91.3L207.8,91.3z M94.6,46.8h80.2c2.9,0,5.1,2.2,5.1,5.1c0,2.9-2.2,5.1-5.1,5.1l-80.2,0
	c-2.9,0-5.1-2.2-5.1-5.1C89.6,49.2,92,46.8,94.6,46.8L94.6,46.8z M94.2,67.7h0.5h80.2h0.5l20,23.8c-2.6,1.7-7.5,3.6-9.9,3.6
	c-1-0.2-3.6-2.2-5.3-3.4c-3.6-2.9-7.5-5.8-11.8-5.8c-4.3,0-8.2,2.9-11.8,5.8c-1.7,1.2-4.3,3.4-5.1,3.4c-1-0.2-3.6-2.2-5.3-3.4
	c-3.6-2.9-7.5-5.8-11.8-5.8c-4.3,0-8.2,2.9-11.8,5.8c-1.7,1.2-4.3,3.4-5.1,3.4c-1-0.2-3.6-2.2-5.3-3.4c-3.6-2.9-7.5-5.8-11.8-5.8
	c-4.3,0-8.2,2.9-11.8,5.8c-1.7,1.2-4.3,3.4-5.1,3.4c-2.4,0-7.2-1.9-9.9-3.6L94.2,67.7z M77.1,194.3v-60.2h115.6v59.9H77.1V194.3z
	 M168.6,223h-67.4c-12,0-21.9-7.7-23.6-17.8h114.8C190.5,215.3,180.6,223,168.6,223L168.6,223z M192.6,118.8v4.8H77.1v-4.8
	c0-4.6,1.7-9.1,4.8-13c1,0.2,1.7,0.2,2.4,0.2c4.3,0,8.2-2.9,11.8-5.8c1.7-1.2,4.3-3.4,5.1-3.4c1,0.2,3.6,2.2,5.3,3.4
	c3.6,2.9,7.5,5.8,11.8,5.8c4.3,0,8.2-2.9,11.8-5.8c1.7-1.2,4.3-3.4,5.1-3.4c1,0.2,3.6,2.2,5.3,3.4c3.6,2.9,7.5,5.8,11.8,5.8
	c4.3,0,8.2-2.9,11.8-5.8c1.7-1.2,4.3-3.4,5.1-3.4c1,0.2,3.6,2.2,5.3,3.4c3.6,2.9,7.5,5.8,11.8,5.8c0.7,0,1.4,0,2.4-0.2
	C190.9,109.6,192.6,114.2,192.6,118.8L192.6,118.8z"/>
</svg>
