<?xml version="1.0" encoding="utf-8"?>
<!-- Generator: Adobe Illustrator 26.2.1, SVG Export Plug-In . SVG Version: 6.00 Build 0)  -->
<svg version="1.1" id="Layer_1" xmlns="http://www.w3.org/2000/svg" xmlns:xlink="http://www.w3.org/1999/xlink" x="0px" y="0px"
	 viewBox="0 0 269.7 270" style="enable-background:new 0 0 269.7 270;" xml:space="preserve">
<style type="text/css">
	.st0{fill:#4771B7;enable-background:new    ;}
	.st1{opacity:0.5;fill:#4771B7;enable-background:new    ;}
	.st2{opacity:0.5;enable-background:new    ;}
	.st3{fill:#4771B7;}
</style>
<g class="st2">
	<path class="st3" d="M137.9,90.8c4.9,4.3,8.7,7.7,8.7,13.7c0,5.5-1.4,10.9-4.2,16c-0.1,0.2-0.2,0.4-0.3,0.5
		c-0.1,0.2-0.3,0.5-0.3,0.5c-0.2,0.4-0.4,1.7-0.4,2.2c0,3.3,2.7,6,6,6c1.1,0,2.1-0.3,3.1-0.8c0.2-0.1,0.7-0.6,0.9-0.7
		c11.8-9.5,18.6-22.2,18.6-34.7c0-10.8-7.1-18.5-13.3-25.2c-5.2-5.6-9.7-10.5-9.7-16c0-4.3,0.7-8.3,2.1-12.1
		c0.2-0.4,0.4-1.7,0.4-2.1c0-3.3-2.7-6-6-6c-1,0-2,0.3-3.5,1.2c0,0-0.4,0.3-0.6,0.5c0,0-0.1,0-0.1,0.1c-7,6.1-15.3,16.4-15.3,31
		C124.1,78.7,131.8,85.4,137.9,90.8L137.9,90.8z M140.1,44.1c-0.5,2.6-0.7,5.4-0.7,8.2c0,8.6,6,15.1,11.7,21.3
		c5.8,6.3,11.2,12.2,11.2,19.9c0,7.7-3.4,15.8-9.7,22.9c1.2-3.9,1.8-7.8,1.8-11.9c0-9.6-6-14.9-11.4-19.6
		c-5.8-5.1-11.2-9.8-11.2-20.2C131.9,56,135.7,49.1,140.1,44.1L140.1,44.1z"/>
	<path class="st3" d="M106.2,98.7c3.3,2.9,5,4.5,5,7.6c0,2.2-0.4,4.4-1.2,6.5c-0.1,0.2-0.1,0.5-0.2,0.7c-0.1,0.2-0.2,0.3-0.2,0.5
		c-0.1,0.3-0.1,0.9-0.1,1.2c0,3.3,2.7,6,6,6c1.5,0,2.9-0.5,4.4-1.9c5.8-5.9,8.9-13,8.9-20c0-7.4-4.7-12.4-8.8-16.8
		c-3.1-3.3-5.7-6.2-5.7-9.1c0-1.7,0.2-3.3,0.6-5c0.1-0.3,0.1-1,0.1-1.2c0-4.6-5.2-8.4-10-4.5c-0.2,0.2-0.4,0.3-0.6,0.5
		C99.6,68.4,97,74.7,97,81.2C97,90.6,102.4,95.3,106.2,98.7L106.2,98.7z M106.6,73.6c0.1,5.9,4,10.1,7.8,14.2
		c3.4,3.7,6.7,7.3,6.7,11.6c0,3.1-0.9,5.9-2.1,8.3c0-0.5,0-0.9,0-1.4c0-6.7-4.3-10.4-7.7-13.4c-3.7-3.2-6.5-5.7-6.5-11.6
		C104.8,78.6,105.4,76,106.6,73.6L106.6,73.6z"/>
	<path class="st3" d="M70.3,224.7c-0.1,0.5-0.1,1.1-0.1,2.4c0,5.4,4.1,10,10,10.8h109.4c0.2,0,0.3,0,0.5,0c5.4-0.7,9.4-5.4,9.4-11.5
		l0,0c0-0.5,0-1.1-0.1-1.6c0-0.1-0.2-1-0.2-1.1c-0.1-0.3-0.1-0.7-0.1-1.1c0-2,0.9-3.9,2.5-5.2c0.3-0.2,0.6-0.4,0.7-0.5
		c0.1-0.1,0.3-0.2,0.4-0.3c5.3-3.7,10.3-7.9,15-12.6c9.3-9.1,16.8-19.6,22.5-31c4.6-0.6,8.5-3.9,9.5-8.5c0.3-1.5,0.6-3,0.8-4.5
		c0.2-1,0.3-2,0.3-3.1c0-10.9-9-19.8-20-19.8l-191.9,0c-11,0-20,8.9-20,19.8c0,0.8,0,1.5,0.1,2.3c0,0.3,0,0.5,0,0.8
		c0.2,1.4,0.5,2.9,0.9,4.6c1,4.5,4.9,7.8,9.5,8.4c5.7,11.5,13.2,21.9,22.5,31c4.7,4.7,9.8,8.9,15.6,12.9l0-0.1
		c0.2,0.2,0.3,0.3,0.5,0.5c1.6,1.3,2.5,3.2,2.5,5.2c0,0.4,0,0.7-0.1,1.1 M26.8,159.6c0-0.2,0-0.5-0.1-0.7c-0.1-0.6-0.1-1.2-0.1-1.8
		c0-6.6,5.5-12,12.3-12h191.9c6.8,0,12.3,5.4,12.3,12c0,0.6,0,1.2-0.1,1.8c-0.2,1.4-0.5,2.7-0.8,4.1c-0.3,1.5-1.7,2.6-3.2,2.6
		l-208.2,0c-1.5,0-2.9-1-3.2-2.6C27.3,161.8,27,160.7,26.8,159.6L26.8,159.6z M191.5,225.1l0.2,2.1c0,1.5-1.1,2.7-2.5,3l-108.6,0
		c-1.5-0.2-2.7-1.5-2.8-3.8c0.1-0.4,0.2-0.9,0.3-1.3c0.1-0.8,0.2-1.6,0.2-2.4c0-4.3-1.9-8.4-5.3-11.2c0,0-0.1,0-0.1-0.1
		c-0.5-0.4-1-0.7-1.5-1c-5-3.5-9.7-7.4-14.1-11.7c-7.6-7.5-14-15.9-19-25.1l96.5,0l96.5,0c-5,9.2-11.4,17.6-19,25.1
		c-4.4,4.4-9.2,8.3-13.7,11.5c-0.1,0.1-0.3,0.1-0.4,0.2c-0.3,0.2-0.7,0.4-1.1,0.8c-0.2,0.1-0.4,0.2-0.5,0.4
		c-3.4,2.8-5.3,6.9-5.3,11.2C191.3,223.4,191.4,224.3,191.5,225.1L191.5,225.1z"/>
</g>
</svg>
