<?xml version="1.0" encoding="utf-8"?>
<!-- Generator: Adobe Illustrator 26.2.1, SVG Export Plug-In . SVG Version: 6.00 Build 0)  -->
<svg version="1.1" id="Layer_1" xmlns="http://www.w3.org/2000/svg" xmlns:xlink="http://www.w3.org/1999/xlink" x="0px" y="0px"
	 viewBox="0 0 269.7 270" style="enable-background:new 0 0 269.7 270;" xml:space="preserve">
<style type="text/css">
	.st0{fill:#4771B7;enable-background:new    ;}
	.st1{opacity:0.5;fill:#4771B7;enable-background:new    ;}
	.st2{opacity:0.5;enable-background:new    ;}
	.st3{fill:#4771B7;}
	.st4{opacity:0.5;fill-rule:evenodd;clip-rule:evenodd;fill:#4771B7;enable-background:new    ;}
</style>
<path class="st1" d="M29.4,111.3l11.1,11.1l35.9-35.9c4.3-4.3,10-6.7,16.1-6.7c6.1,0,11.8,2.4,16.1,6.7l119.3,119.3l1.2-1.2l1.3,1.2
	l9.9-9.9L119.7,75.4c-7.3-7.3-16.9-11.3-27.2-11.3c-10.3,0-19.9,4-27.2,11.3L29.4,111.3z M97.6,76.9c-1.1-0.2-2.2-0.3-3.4-0.4l0-8.8
	c1.9,0.1,3.8,0.3,5.6,0.7L97.6,76.9z M103.2,69.3c1.8,0.6,3.5,1.3,5.2,2.2l-4.4,7.6c-1-0.5-2.1-0.9-3.1-1.3L103.2,69.3z M90.8,76.5
	c-1.1,0.1-2.3,0.2-3.4,0.4l-2.3-8.5c1.8-0.4,3.7-0.6,5.6-0.7L90.8,76.5z M84,77.8c-1.1,0.4-2.1,0.8-3.1,1.3l-4.4-7.6
	c1.7-0.9,3.4-1.6,5.2-2.2L84,77.8z M112.3,85.3l6.2-6.2L235.4,196l-6.2,6.2L112.3,85.3z M109.8,82.9c-0.9-0.7-1.7-1.5-2.7-2.1
	l4.4-7.6c1.6,1,3.1,2.2,4.5,3.5L109.8,82.9L109.8,82.9z M77.9,80.8c-0.9,0.6-1.8,1.3-2.7,2.1L69,76.7c1.4-1.3,2.9-2.5,4.5-3.5
	L77.9,80.8L77.9,80.8z M40.5,117.5l-6.2-6.2l32.2-32.2l6.2,6.2L40.5,117.5z"/>
</svg>
