<?xml version="1.0" encoding="utf-8"?>
<!-- Generator: Adobe Illustrator 26.2.1, SVG Export Plug-In . SVG Version: 6.00 Build 0)  -->
<svg version="1.1" id="Layer_1" xmlns="http://www.w3.org/2000/svg" xmlns:xlink="http://www.w3.org/1999/xlink" x="0px" y="0px"
	 viewBox="0 0 269.7 270" style="enable-background:new 0 0 269.7 270;" xml:space="preserve">
<style type="text/css">
	.st0{fill:#4771B7;enable-background:new    ;}
	.st1{opacity:0.5;fill:#4771B7;enable-background:new    ;}
	.st2{opacity:0.5;enable-background:new    ;}
	.st3{fill:#4771B7;}
	.st4{opacity:0.5;fill-rule:evenodd;clip-rule:evenodd;fill:#4771B7;enable-background:new    ;}
</style>
<path class="st1" d="M204.4,75.4c-7.3-7.3-16.9-11.3-27.2-11.3c-10.3,0-20,4-27.2,11.3L29.4,196l9.9,9.9l1.3-1.2l1.2,1.2L161.1,86.5
	c4.3-4.3,10-6.7,16.1-6.7c6.1,0,11.8,2.4,16.1,6.7l35.9,35.9l11.1-11.1L204.4,75.4z M169.8,68.4c1.8-0.4,3.7-0.6,5.6-0.7l0,8.8
	c-1.1,0.1-2.3,0.2-3.4,0.4L169.8,68.4z M168.7,77.8c-1.1,0.4-2.1,0.8-3.1,1.3l-4.4-7.6c1.7-0.9,3.4-1.6,5.2-2.2L168.7,77.8z
	 M178.9,67.7c1.9,0.1,3.8,0.3,5.6,0.7l-2.3,8.5c-1.1-0.2-2.2-0.3-3.4-0.4L178.9,67.7z M187.9,69.3c1.8,0.6,3.6,1.3,5.2,2.2l-4.4,7.6
	c-1-0.5-2.1-0.9-3.1-1.3L187.9,69.3z M40.5,202.2l-6.2-6.2L151.2,79.1l6.2,6.2L40.5,202.2z M159.9,82.9l-6.2-6.2
	c1.4-1.3,2.9-2.5,4.5-3.5l4.4,7.6C161.7,81.4,160.8,82.1,159.9,82.9L159.9,82.9z M191.8,80.8l4.4-7.6c1.6,1,3.1,2.2,4.5,3.5
	l-6.2,6.2C193.6,82.1,192.7,81.4,191.8,80.8L191.8,80.8z M197,85.3l6.2-6.2l32.2,32.2l-6.2,6.2L197,85.3z"/>
</svg>
