<?xml version="1.0" encoding="utf-8"?>
<!-- Generator: Adobe Illustrator 26.2.1, SVG Export Plug-In . SVG Version: 6.00 Build 0)  -->
<svg version="1.1" id="Layer_1" xmlns="http://www.w3.org/2000/svg" xmlns:xlink="http://www.w3.org/1999/xlink" x="0px" y="0px"
	 viewBox="0 0 269.7 270" style="enable-background:new 0 0 269.7 270;" xml:space="preserve">
<style type="text/css">
	.st0{fill:#4771B7;enable-background:new    ;}
	.st1{opacity:0.5;fill:#4771B7;enable-background:new    ;}
	.st2{opacity:0.5;enable-background:new    ;}
	.st3{fill:#4771B7;}
	.st4{opacity:0.5;fill-rule:evenodd;clip-rule:evenodd;fill:#4771B7;enable-background:new    ;}
</style>
<g class="st2">
	<path class="st3" d="M110,152.2l-0.9-6.2c0,0,0,0,0,0c0,0,0,0,0,0l-2.2-6.4c0,0,0,0,0,0c0,0,0,0,0,0l-3.2-6.2c0,0,0,0,0,0
		c0,0,0,0,0,0l-4.1-5.6c0,0,0,0,0,0c0,0,0,0,0,0l-4.7-4.6c0,0,0,0,0,0c0,0,0,0,0,0l-4.9-3.3c0,0,0,0-0.1,0c0,0,0,0,0,0l-4.9-1.7
		c0,0,0,0-0.1,0c0,0,0,0-0.1,0l-4.5-0.1h0c0,0-0.1,0-0.1,0c0,0-0.1,0-0.1,0l-3.8,1.6c0,0,0,0-0.1,0.1c0,0-0.1,0-0.1,0l-2.8,3.1
		c0,0,0,0.1,0,0.1c0,0,0,0-0.1,0.1l-1.6,4.5c0,0,0,0,0,0.1c0,0,0,0,0,0.1l-0.4,5.5c0,0,0,0,0,0c0,0,0,0,0,0l0.9,6.2c0,0,0,0,0,0
		c0,0,0,0,0,0l2.2,6.4c0,0,0,0,0,0c0,0,0,0,0,0l3.3,6.2c0,0,0,0,0,0c0,0,0,0,0,0l4.1,5.6c0,0,0,0,0,0c0,0,0,0,0,0l4.7,4.6
		c0,0,0,0,0,0c0,0,0,0,0,0l4.9,3.3c0,0,0,0,0.1,0c0,0,0,0,0,0l4.9,1.7c0,0,0.1,0,0.1,0c0,0,0,0,0,0l4.5,0.1h0c0.1,0,0.1,0,0.2,0
		l3.7-1.6c0,0,0-0.1,0.1-0.1c0,0,0.1,0,0.1,0l2.8-3.1c0,0,0,0,0-0.1c0,0,0.1-0.1,0.1-0.1l1.6-4.5c0,0,0,0,0-0.1c0,0,0,0,0-0.1
		L110,152.2C110,152.3,110,152.3,110,152.2C110,152.3,110,152.3,110,152.2L110,152.2z M108.8,157.7l-1.5,4.3l-2.7,3l-3.6,1.5
		l-4.3-0.1l-4.8-1.7l-4.8-3.2l-4.7-4.5l-4-5.5l-3.2-6.1l-2.2-6.3l-0.9-6.1l0.4-5.4l1.6-4.4l2.6-3l3.6-1.5l4.3,0.1l4.7,1.7l4.8,3.2
		l4.7,4.5l4.1,5.5l3.2,6.1l2.1,6.3l0.9,6.1L108.8,157.7z"/>
	<path class="st3" d="M227.5,100.1c0-0.1,0-0.3-0.1-0.4l-5.6-16.4c0-0.1-0.1-0.2-0.1-0.3l-8.3-15.9c-0.1-0.1-0.1-0.2-0.2-0.3
		l-10.5-14.3c-0.1-0.1-0.2-0.2-0.2-0.3l-12-11.7c-0.1-0.1-0.2-0.2-0.3-0.3l-12.7-8.4c-0.1-0.1-0.3-0.2-0.5-0.2l-12.5-4.4
		c-0.2-0.1-0.5-0.1-0.7-0.1l-11.4-0.2h0c-0.3,0-0.6,0.1-0.9,0.2l-9.6,4.1c-0.1,0-0.2,0.1-0.2,0.1L53.1,82.4
		c-0.2,0.1-0.4,0.3-0.6,0.5l-7.1,8.1c-0.2,0.2-0.3,0.4-0.4,0.7l-4.2,11.5c-0.1,0.2-0.1,0.4-0.1,0.6l-0.9,14.1c0,0.2,0,0.3,0,0.5
		l2.4,15.8c0,0.1,0,0.3,0.1,0.4l5.6,16.4c0,0.1,0.1,0.2,0.1,0.3l8.3,15.9c0.1,0.1,0.1,0.2,0.2,0.3L67,181.7c0.1,0.1,0.2,0.2,0.2,0.3
		l12,11.7c0.1,0.1,0.2,0.2,0.3,0.3l12.7,8.4c0.1,0.1,0.3,0.2,0.5,0.2l12.5,4.4c0.2,0.1,0.5,0.1,0.7,0.1l11.4,0.2h0
		c0.3,0,0.6-0.1,0.9-0.2l9.6-4.1c0.1,0,0.2-0.1,0.2-0.1l8.8-5.1v43.1c0,0.8,0.4,1.5,1.1,1.9c0.3,0.2,0.7,0.3,1.1,0.3
		c0.4,0,0.8-0.1,1.1-0.3l88.5-51.1c0.7-0.4,1.1-1.1,1.1-1.9v-73.5c0-0.1,0-0.2,0-0.3L227.5,100.1z M126.7,200.6l-9.4,4l-11.2-0.2
		L93.7,200l-12.6-8.3L69.2,180l-10.5-14.3L50.4,150l-5.5-16.3l-2.4-15.7l0.9-14l4.1-11.3l7-7.9l9.4-4l11.3,0.2l12.3,4.3l12.6,8.3
		l12,11.7l10.5,14.2l8.3,15.9l5.5,16.3l2.4,15.7l-0.9,14l-4.1,11.3L126.7,200.6z M138.7,193.7l-9.6,5.5l5.3-6c0,0,0,0,0-0.1
		c0,0,0.1,0,0.1-0.1l4.1-11.5c0,0,0,0,0-0.1c0,0,0,0,0,0V193.7z M137.2,151.4C137.2,151.4,137.2,151.4,137.2,151.4
		C137.2,151.4,137.2,151.4,137.2,151.4l-5.6-16.4c0,0,0,0,0,0c0,0,0,0,0,0l-8.3-15.9c0,0,0,0,0,0c0,0,0,0,0,0l-10.5-14.3
		c0,0,0,0,0,0c0,0,0,0,0,0l-12-11.7c0,0,0,0,0,0c0,0,0,0,0,0l-12.7-8.4c0,0,0,0-0.1,0c0,0,0,0,0,0L75.4,80c0,0,0,0-0.1,0
		c0,0,0,0-0.1,0l-11.4-0.2h0c0,0-0.1,0-0.1,0c0,0-0.1,0-0.1,0l-3,1.3l82.3-47.5l9.5-4l11.3,0.2l12.3,4.4l12.6,8.3l11.9,11.7
		L211,68.4l8.3,15.8l5.5,16.4l2.4,15.5l-87.7,50.6L137.2,151.4z M227.3,189.5l-87.6,50.6v-72.5l87.6-50.6L227.3,189.5z"/>
</g>
</svg>
