<?xml version="1.0" encoding="utf-8"?>
<!-- Generator: Adobe Illustrator 26.2.1, SVG Export Plug-In . SVG Version: 6.00 Build 0)  -->
<svg version="1.1" id="Layer_1" xmlns="http://www.w3.org/2000/svg" xmlns:xlink="http://www.w3.org/1999/xlink" x="0px" y="0px"
	 viewBox="0 0 269.7 270" style="enable-background:new 0 0 269.7 270;" xml:space="preserve">
<style type="text/css">
	.st0{fill:#4771B7;enable-background:new    ;}
	.st1{opacity:0.5;fill:#4771B7;enable-background:new    ;}
	.st2{opacity:0.5;enable-background:new    ;}
	.st3{fill:#4771B7;}
	.st4{opacity:0.5;fill-rule:evenodd;clip-rule:evenodd;fill:#4771B7;enable-background:new    ;}
	.st5{enable-background:new    ;}
</style>
<g class="st2">
	<path class="st3" d="M60.7,126.7l0.5,5.1c0,0,0,0,0,0c0,0,0,0,0,0l1.3,5.7c0,0,0,0,0,0c0,0,0,0,0,0l2,5.9c0,0,0,0,0,0c0,0,0,0,0,0
		l2.5,5.6c0,0,0,0,0,0c0,0,0,0,0,0l3,5c0,0,0,0,0,0c0,0,0,0,0,0l3.1,4c0,0,0,0,0,0c0,0,0,0,0,0l3.1,2.8c0,0,0,0,0.1,0c0,0,0,0,0,0
		l2.8,1.3c0.1,0,0.1,0,0.2,0h0l2.5-0.1c0,0,0.1,0,0.1,0c0.1,0,0.1,0,0.2-0.1l1.8-1.7c0,0,0,0,0-0.1c0,0,0.1-0.1,0.1-0.1l1.1-3
		c0,0,0,0,0-0.1c0,0,0,0,0-0.1l0.3-4.2c0,0,0,0,0,0c0,0,0,0,0,0l-0.5-5.1c0,0,0,0,0,0c0,0,0,0,0,0l-1.3-5.7c0,0,0,0,0,0c0,0,0,0,0,0
		l-2-5.8c0,0,0,0,0,0c0,0,0,0,0,0l-2.6-5.6c0,0,0,0,0,0c0,0,0,0,0,0l-2.9-5c0,0,0,0,0,0c0,0,0,0,0,0l-3.1-4.1c0,0,0,0,0,0
		c0,0,0,0,0,0l-3.1-2.8c0,0,0,0-0.1,0c0,0,0,0,0,0l-2.8-1.4c0,0-0.1,0-0.1,0c0,0-0.1,0-0.1,0h0l-2.4,0.1c-0.1,0-0.1,0-0.1,0.1
		c0,0-0.1,0-0.1,0.1l-1.8,1.7c0,0,0,0.1,0,0.1s-0.1,0-0.1,0.1l-1.1,3c0,0,0,0,0,0.1s0,0,0,0.1L60.7,126.7
		C60.7,126.6,60.7,126.6,60.7,126.7C60.7,126.7,60.7,126.7,60.7,126.7L60.7,126.7z M61.9,122.5l1.1-2.9l1.6-1.5l2.2-0.1l2.7,1.3
		l3,2.7l3.1,4l2.9,4.9l2.6,5.6l2,5.8l1.3,5.6l0.5,5.1l-0.3,4.1l-1,2.9l-1.6,1.5l-2.2,0.1l-2.7-1.3l-3-2.7l-3.1-4l-2.9-5l-2.5-5.5
		l-2-5.8l-1.3-5.6l-0.5-5L61.9,122.5z"/>
	<path class="st3" d="M221.4,151.8l4.9-4.4c0.3-0.2,0.5-0.5,0.6-0.9l3-8.1c0.1-0.2,0.1-0.4,0.1-0.6l0.8-11.3c0-0.1,0-0.2,0-0.4
		l-1.3-13.7c0-0.1,0-0.2,0-0.3l-3.5-15.2c0-0.1,0-0.1-0.1-0.2l-5.3-15.6c0-0.1,0-0.1-0.1-0.2l-6.8-15c0-0.1-0.1-0.1-0.1-0.2
		l-7.8-13.4c0-0.1-0.1-0.2-0.2-0.2l-8.4-10.8c-0.1-0.1-0.2-0.2-0.3-0.3l-8.3-7.5c-0.2-0.1-0.3-0.3-0.5-0.3l-7.7-3.7
		c-0.3-0.1-0.6-0.2-0.9-0.2h-0.1L173,30c-0.2,0-0.5,0.1-0.7,0.1L48.9,78.8c-0.2,0.1-0.5,0.2-0.6,0.4l-4.9,4.3
		c-0.3,0.2-0.5,0.5-0.6,0.9l-3,8.1c-0.1,0.2-0.1,0.4-0.1,0.6l-0.8,11.2c0,0.1,0,0.2,0,0.4l1.4,13.7c0,0.1,0,0.2,0,0.3l3.5,15.2
		l24,104.8c0.1,0.6,0.5,1.1,1.1,1.4c0.3,0.2,0.7,0.3,1,0.3c0.3,0,0.5-0.1,0.8-0.2L194,191.5c1-0.4,1.6-1.5,1.3-2.5l-5.6-24.5
		l31.1-12.2C221,152.2,221.3,152,221.4,151.8L221.4,151.8z M42.9,118.2l-1.4-13.6l0.8-11.1l2.9-7.9l4.7-4.2l6.2-0.3l7.5,3.6l8.2,7.4
		l8.3,10.8l7.8,13.3l6.8,14.9l5.3,15.6l3.5,15l1.4,13.6l-0.8,11.2l-2.9,7.9l-4.7,4.2l-6.2,0.3l-7.5-3.6l-8.2-7.4L66.3,177l-7.8-13.3
		l-6.8-14.9l-5.3-15.5L42.9,118.2z M192.7,189.2L70.2,237.6l-22-96.2l2.6,7.7c0,0,0,0,0,0c0,0,0,0,0,0l6.8,15c0,0,0,0,0,0
		c0,0,0,0,0,0l7.8,13.3c0,0,0,0,0,0c0,0,0,0,0,0l8.3,10.8c0,0,0,0,0,0c0,0,0,0,0,0l8.3,7.5c0,0,0,0,0.1,0c0,0,0,0,0,0l7.6,3.7
		c0.1,0,0.1,0,0.2,0h0l6.5-0.3c0,0,0,0,0,0c0,0,0.1,0,0.1,0l90-35.6L192.7,189.2z M187,162.7L187,162.7l-88.2,34.9l3.1-2.8
		c0,0,0,0,0-0.1c0,0,0.1-0.1,0.1-0.1l2.9-8.1c0,0,0,0,0-0.1c0,0,0,0,0-0.1l0.8-11.3c0,0,0,0,0,0c0,0,0,0,0,0l-1.4-13.7c0,0,0,0,0,0
		c0,0,0,0,0,0l-3.5-15.1c0,0,0,0,0,0c0,0,0,0,0,0l-5.3-15.6c0,0,0,0,0,0c0,0,0,0,0,0l-6.8-15c0,0,0,0,0,0c0,0,0,0,0,0l-7.9-13.3
		c0,0,0,0,0,0c0,0,0,0,0,0l-8.3-10.8c0,0,0,0,0,0c0,0,0,0,0,0l-8.3-7.4c0,0,0,0-0.1,0c0,0,0,0,0,0l-7.6-3.7c0,0-0.1,0-0.1,0
		c0,0-0.1,0-0.1,0l-3.8,0.2l120.8-47.7l6.3-0.3l7.5,3.6l8.2,7.4l8.3,10.7l7.8,13.3l6.8,14.9l5.3,15.6l3.4,15.1l1.3,13.6l-0.8,11.2
		l-2.9,7.9l-4.7,4.3L187,162.7z"/>
</g>
</svg>
