<?xml version="1.0" encoding="utf-8"?>
<!-- Generator: Adobe Illustrator 26.2.1, SVG Export Plug-In . SVG Version: 6.00 Build 0)  -->
<svg version="1.1" id="Layer_1" xmlns="http://www.w3.org/2000/svg" xmlns:xlink="http://www.w3.org/1999/xlink" x="0px" y="0px"
	 viewBox="0 0 269.7 270" style="enable-background:new 0 0 269.7 270;" xml:space="preserve">
<style type="text/css">
	.st0{fill:#4771B7;enable-background:new    ;}
	.st1{opacity:0.5;fill:#4771B7;enable-background:new    ;}
	.st2{opacity:0.5;enable-background:new    ;}
	.st3{fill:#4771B7;}
	.st4{opacity:0.5;fill-rule:evenodd;clip-rule:evenodd;fill:#4771B7;enable-background:new    ;}
</style>
<path class="st4" d="M213,215.3H107.3V188H211c1.9,0,3.5-1.6,3.5-3.5s-1.6-3.5-3.5-3.5H107.3v-27.3H213c17,0,30.8,13.8,30.8,30.8
	C243.8,201.5,230,215.3,213,215.3L213,215.3z M74.9,215.3h25.4V188H74.9V215.3z M25.9,201.7c0-7.5,6.1-13.6,13.6-13.6h28.4v27.3
	H39.5C32,215.3,25.9,209.2,25.9,201.7z M25.9,167.4c0-7.5,6.1-13.6,13.6-13.6h28.4V181H39.5C32,181,25.9,174.9,25.9,167.4z
	 M74.9,181h25.4v-27.3H74.9V181z M46.8,133.7c0-7.2,5.8-13,13-13h142.7c7.2,0,13,5.8,13,13c0,7.2-5.8,13-13,13H59.7
	C52.6,146.7,46.8,140.9,46.8,133.7L46.8,133.7z M46.8,100.7c0-7.2,5.8-13,13-13h142.7c7.2,0,13,5.8,13,13s-5.8,13-13,13H59.7
	C52.6,113.7,46.8,107.9,46.8,100.7L46.8,100.7z M60.1,54.7h51l44.3,22c0.5,0.2,1,0.4,1.6,0.4c0.5,0,1.1-0.1,1.5-0.4l45-22
	c6.8,0.4,12.3,6,12.3,13c0,7.2-5.8,13-13,13H60.1c-7.2,0-13-5.8-13-13C47.1,60.5,53,54.7,60.1,54.7L60.1,54.7z M187.6,54.7L157,69.6
	L127,54.7H187.6z M217.4,147c3.1-3.5,5.1-8.2,5.1-13.3c0-6.8-3.5-12.9-8.7-16.5c5.3-3.6,8.7-9.7,8.7-16.5c0-6.8-3.4-12.7-8.5-16.4
	c5.4-3.6,8.9-9.7,8.9-16.6c0-11-9-20-20-20H60.1c-11,0-20,9-20,20c0,6.8,3.4,12.7,8.5,16.4c-5.4,3.6-8.9,9.7-8.9,16.6
	c0,6.8,3.5,12.9,8.7,16.5c-5.3,3.6-8.7,9.7-8.7,16.5c0,5,1.8,9.5,4.8,13h-5c-11.4,0-20.7,9.3-20.7,20.7c0,7.1,3.6,13.4,9.1,17.1
	c-5.5,3.7-9.1,10-9.1,17.1c0,11.4,9.3,20.7,20.7,20.7H213c20.8,0,37.8-17,37.8-37.8C250.8,165.2,236.2,149.2,217.4,147L217.4,147z"
	/>
</svg>
