<?xml version="1.0" encoding="utf-8"?>
<!-- Generator: Adobe Illustrator 26.2.1, SVG Export Plug-In . SVG Version: 6.00 Build 0)  -->
<svg version="1.1" id="Layer_1" xmlns="http://www.w3.org/2000/svg" xmlns:xlink="http://www.w3.org/1999/xlink" x="0px" y="0px"
	 viewBox="0 0 269.7 270" style="enable-background:new 0 0 269.7 270;" xml:space="preserve">
<style type="text/css">
	.st0{fill:#4771B7;enable-background:new    ;}
	.st1{opacity:0.5;fill:#4771B7;enable-background:new    ;}
	.st2{opacity:0.5;enable-background:new    ;}
	.st3{fill:#4771B7;}
	.st4{opacity:0.5;fill-rule:evenodd;clip-rule:evenodd;fill:#4771B7;enable-background:new    ;}
</style>
<g class="st2">
	<path class="st3" d="M134.8,237.1c15.6,0,30.6-6.2,41.7-17.3c11.1-11.1,17.3-26,17.3-41.7c0-31.1-53.6-138.7-55.8-143.3
		c-0.6-1.2-1.8-1.9-3.1-1.9s-2.5,0.7-3.1,1.9c-1.8,3.6-43.6,87.5-53.7,128.7v0c-0.2,0.9-0.1,1.9,0.4,2.7c0.5,0.8,1.3,1.4,2.2,1.6
		c0.9,0.2,1.9,0.1,2.7-0.4c0.8-0.5,1.4-1.3,1.6-2.2c8.3-34.1,39.9-100.2,50-120.9c11.7,23.9,52,108.5,52,133.8v0
		c0,18.6-9.9,35.7-26,45c-16.1,9.3-35.9,9.3-52,0c-16.1-9.3-26-26.5-26-45c0-1.9-1.6-3.5-3.5-3.5c-1.9,0-3.5,1.6-3.5,3.5
		c0,15.6,6.2,30.6,17.3,41.7C104.2,230.8,119.2,237.1,134.8,237.1L134.8,237.1z"/>
	<path class="st3" d="M150.4,203.5c1.4,1.4,3.6,1.4,4.9,0c15-15,12.1-39.2,1.6-55.3c-1.1-1.5-3.2-1.9-4.8-0.9c-1.6,1-2,3.1-1.1,4.7
		c8.8,13.4,11.6,34.3-0.7,46.6h0c-0.7,0.7-1,1.5-1,2.5C149.4,201.9,149.8,202.8,150.4,203.5L150.4,203.5z"/>
</g>
</svg>
