<?xml version="1.0" encoding="utf-8"?>
<!-- Generator: Adobe Illustrator 26.1.0, SVG Export Plug-In . SVG Version: 6.00 Build 0)  -->
<svg version="1.1" id="Layer_1" xmlns="http://www.w3.org/2000/svg" xmlns:xlink="http://www.w3.org/1999/xlink" x="0px" y="0px"
	 viewBox="0 0 269.7 270" style="enable-background:new 0 0 269.7 270;" xml:space="preserve">
<style type="text/css">
	.st0{opacity:0.5;fill:#4374BA;}
	.st1{opacity:0.5;}
	.st2{fill:#4771B7;}
	.st3{opacity:0.5;fill:#4771B7;}
</style>
<g class="st1">
	<g>
		<path class="st2" d="M111.7,104.6l1.6-1.1c0.3-0.2,0.5-0.3,0.7-0.5l1.7-1.1l-0.5-1L99.7,63.2l-2.2,1.2c-4.7,2.5-9.2,5.5-13.5,9
			L82,75l28.3,28.3L111.7,104.6z M88.8,75.3c2.8-2.1,5.6-4.1,8.6-5.7L107.5,94L88.8,75.3z"/>
		<path class="st2" d="M142.8,97.7l1.3,0.3l0.9-1l15.7-37.7l-2.4-0.7c-5.3-1.6-10.7-2.7-16-3.1l-2.5-0.2v42l2,0.2
			C142.2,97.5,142.5,97.6,142.8,97.7L142.8,97.7z M144.4,60.2c3.4,0.4,6.8,1.1,10.1,2l-10.1,24.5V60.2z"/>
		<path class="st2" d="M101.9,115.8l1-1.7c0.1-0.2,0.3-0.5,0.5-0.8l1.1-1.6L74.9,82.1L73.3,84c-3.5,4.3-6.6,8.9-9,13.6l-1.1,2.2
			l36.9,15.3L101.9,115.8z M69.5,97.5c1.7-2.9,3.6-5.8,5.8-8.6L94,107.6L69.5,97.5z"/>
		<path class="st2" d="M124.7,98l2.2-0.3c0.3-0.1,0.6-0.1,0.9-0.2l2-0.2l0-42l-2.5,0.2c-5.3,0.4-10.6,1.5-16,3.1l-2.4,0.7l15.3,37
			L124.7,98z M125.2,60.2v26.5l-10.1-24.5C118.5,61.3,121.9,60.7,125.2,60.2L125.2,60.2z"/>
		<path class="st2" d="M166.2,113.1c0.2,0.4,0.5,0.8,0.8,1.2l1.1,1.5l38.6-16l-1.2-2.2c-2.6-4.8-5.6-9.4-9-13.5l-1.6-1.9l-29.5,29.5
			L166.2,113.1z M194.4,88.9c2.1,2.7,4,5.6,5.7,8.6l-24.4,10.1L194.4,88.9z"/>
		<path class="st2" d="M153.8,101.7l2.2,1.5c0.2,0.2,0.5,0.3,0.7,0.4l1.5,0.9L187.7,75l-2-1.6c-4.1-3.4-8.7-6.5-13.5-9l-2.2-1.2
			l-15.3,36.9L153.8,101.7z M172.3,69.6c3,1.7,5.9,3.6,8.6,5.7L162.2,94L172.3,69.6z"/>
		<path class="st2" d="M144.6,171.9l-1.9,0.3c-0.3,0.1-0.6,0.1-0.9,0.2l-2,0.2v42l2.5-0.2c5.3-0.5,10.6-1.5,16-3.1l2.4-0.7l-15.3-37
			L144.6,171.9z M144.4,209.6v-26.5l10.1,24.5C151.2,208.6,147.8,209.2,144.4,209.6L144.4,209.6z"/>
		<path class="st2" d="M211.3,111.4l-0.7-2.4l-36.6,15.2l-2.3,1l0.4,1.8c0.1,0.3,0.2,0.6,0.2,0.9l0.2,2h42l-0.2-2.5
			C213.9,122.1,212.9,116.8,211.3,111.4L211.3,111.4z M183.1,125.4l24.5-10.2c0.9,3.4,1.6,6.8,2,10.2H183.1z"/>
		<path class="st2" d="M158,165.2l-1.6,1.1c-0.2,0.2-0.5,0.4-0.7,0.5l-1.7,0.9l0.5,1.1l15.5,37.8l2.2-1.2c4.8-2.6,9.4-5.6,13.5-9.1
			l2-1.6l-28.2-28.2L158,165.2z M180.9,194.6c-2.7,2.1-5.6,4-8.6,5.7l-10.1-24.4L180.9,194.6z"/>
		<path class="st2" d="M166.6,156.1c-0.2,0.2-0.3,0.5-0.4,0.7l-0.9,1.5l29.5,29.5l1.6-1.9c3.4-4.1,6.5-8.7,9-13.5l1.2-2.2
			l-38.7-16.1L166.6,156.1z M200.2,172.4c-1.7,3-3.6,5.9-5.7,8.6l-18.7-18.7L200.2,172.4z"/>
		<path class="st2" d="M172.4,141.7c-0.1,0.2-0.1,0.5-0.2,1.1l-0.5,1.9l38.8,16.1l0.7-2.4c1.6-5.3,2.7-10.7,3.1-16l0.2-2.5h-41.7
			L172.4,141.7z M209.6,144.5c-0.4,3.4-1.1,6.8-2,10.2l-24.5-10.2H209.6z"/>
		<path class="st2" d="M97.4,127.9c0-0.2,0.1-0.4,0.2-0.9l0.4-2.1l-2.2-0.7l-36.5-15.2l-0.7,2.4c-1.6,5.3-2.7,10.7-3.1,15.9
			l-0.2,2.5l42,0L97.4,127.9z M60.2,125.3c0.4-3.3,1.1-6.7,2-10.1l24.4,10.1L60.2,125.3z"/>
		<path class="st2" d="M223.4,106.4c-1.5-4.7-3.4-9.3-5.7-13.8c-3.2-6.3-7.2-12.3-11.9-17.8c-3.2-3.8-6.8-7.4-10.6-10.6
			c-5.5-4.7-11.5-8.7-17.8-12c-4.4-2.3-9.1-4.2-13.9-5.8c-6.8-2.2-13.9-3.6-21-4.1c-4.7-0.5-10.4-0.4-15,0
			c-7.2,0.6-14.3,1.9-21.1,4.1c-4.8,1.5-9.4,3.5-13.8,5.8c-6.3,3.2-12.3,7.2-17.9,11.9c-3.8,3.2-7.4,6.8-10.6,10.6
			c-4.7,5.5-8.7,11.5-12,17.9c-2.3,4.5-4.2,9.2-5.7,13.8c-2.2,6.7-3.6,13.8-4.2,21c-0.2,2.4-0.3,4.8-0.3,7.6c0,2.7,0.1,5.1,0.3,7.5
			c0.6,7.3,2,14.4,4.2,21c1.5,4.8,3.4,9.5,5.7,13.9c3.2,6.3,7.2,12.3,12,17.8c3.2,3.8,6.8,7.4,10.6,10.6c5.5,4.7,11.5,8.7,17.9,12
			c4.4,2.3,9.1,4.3,13.8,5.8c6.8,2.2,13.9,3.6,21,4.1c2.4,0.2,4.8,0.3,7.5,0.3c2.7,0,5.2-0.1,7.5-0.3c7.2-0.6,14.3-1.9,21.1-4.1
			c4.8-1.5,9.4-3.5,13.8-5.8c6.3-3.2,12.3-7.2,17.9-11.9c3.9-3.3,7.4-6.8,10.6-10.6c4.7-5.5,8.8-11.5,12-17.8
			c2.4-4.6,4.3-9.3,5.7-13.8c2.2-6.8,3.6-13.9,4.2-21.1c0.2-2.4,0.3-4.8,0.3-7.5c0-2.7-0.1-5.2-0.3-7.5
			C227,120.2,225.6,113.1,223.4,106.4L223.4,106.4z M223,142c-0.5,6.9-1.9,13.6-4,20.1c-1.3,4.3-3.2,8.7-5.4,13.1
			c-3,6-6.9,11.7-11.4,16.9c-3,3.6-6.3,6.9-10.1,10.1c-5.3,4.4-11,8.3-17,11.3c-4.2,2.2-8.6,4-13.2,5.5c-6.4,2.1-13.2,3.4-20,3.9
			c-4.4,0.4-9.7,0.4-14.3,0c-6.8-0.5-13.5-1.8-20-3.9c-4.5-1.4-9-3.3-13.2-5.5c-6.1-3.1-11.8-6.9-17-11.4c-3.6-3.1-7-6.4-10.1-10.1
			c-4.5-5.2-8.3-10.9-11.4-17c-2.2-4.2-4-8.6-5.4-13.2c-2.1-6.4-3.4-13.1-4-20c-0.2-2.2-0.3-4.5-0.3-7.1c0-2.6,0.1-4.9,0.3-7.2
			c0.5-6.9,1.9-13.6,4-20c1.4-4.4,3.3-8.9,5.4-13.1c3.1-6.1,6.9-11.8,11.4-17c3.1-3.6,6.5-7,10.1-10.1c5.3-4.4,11-8.3,17-11.3
			c4.2-2.2,8.6-4,13.1-5.5c6.5-2.1,13.2-3.4,20.1-3.9c2.2-0.2,4.5-0.3,7.1-0.3c2.6,0,4.9,0.1,7.2,0.3c6.8,0.5,13.5,1.9,20,3.9
			c4.5,1.4,8.9,3.3,13.1,5.5c6.1,3.1,11.8,6.9,17,11.4c3.6,3.1,7,6.4,10.1,10.1c4.5,5.3,8.3,11,11.4,16.9c2.2,4.3,4,8.7,5.5,13.2
			c2.1,6.4,3.4,13.1,4,20.1c0.2,2.2,0.3,4.5,0.3,7.1C223.3,137.5,223.2,139.8,223,142L223,142z"/>
		<path class="st2" d="M115.7,167.9l-1.7-1.1c-0.3-0.1-0.5-0.3-0.8-0.5l-1.6-1.1L82,194.8l1.9,1.6c4.2,3.5,8.8,6.6,13.5,9.1l2.2,1.2
			l15.3-36.9L115.7,167.9z M97.4,200.3c-2.9-1.7-5.8-3.6-8.6-5.8l18.7-18.7L97.4,200.3z"/>
		<path class="st2" d="M126.9,172.2l-1.9-0.3l-0.3,1l-15.8,37.7l2.4,0.7c5.3,1.6,10.7,2.7,16,3.1l2.5,0.2v-42l-2-0.2
			C127.5,172.3,127.2,172.3,126.9,172.2L126.9,172.2z M125.2,209.6c-3.4-0.4-6.7-1.1-10.1-2l10.1-24.5V209.6z"/>
		<path class="st2" d="M98.1,144.9l-0.6-2.2l-0.5-2.7H55.1l0.2,2.5c0.5,5.3,1.5,10.6,3.1,16l0.7,2.4l36.5-15.1L98.1,144.9z
			 M62.2,154.6c-0.9-3.4-1.6-6.8-2-10.1h26.4L62.2,154.6z"/>
		<path class="st2" d="M103.5,156.8c-0.1-0.2-0.3-0.5-0.4-0.7l-1.3-2l-38.7,16l1.2,2.2c2.6,4.8,5.6,9.4,9,13.5l1.6,1.9l29.5-29.4
			L103.5,156.8z M75.3,180.9c-2.1-2.7-4-5.6-5.7-8.6L94,162.3L75.3,180.9z"/>
		<path class="st2" d="M146.8,134.9c0-6.6-5.4-12-12-12c-6.6,0-12,5.4-12,12c0,6.6,5.4,12,12,12
			C141.4,146.9,146.8,141.5,146.8,134.9z M134.8,142.3c-4.1,0-7.4-3.3-7.4-7.4c0-4.1,3.3-7.4,7.4-7.4c4.1,0,7.4,3.3,7.4,7.4
			C142.2,139,138.9,142.3,134.8,142.3z"/>
		<path class="st2" d="M130.7,114.5c0-4.2-3.4-7.7-7.7-7.7c-4.2,0-7.7,3.4-7.7,7.7c0,4.2,3.4,7.7,7.7,7.7
			C127.3,122.2,130.7,118.8,130.7,114.5z M120,114.5c0-1.7,1.4-3.1,3.1-3.1c1.7,0,3.1,1.4,3.1,3.1c0,1.7-1.4,3.1-3.1,3.1
			C121.3,117.6,120,116.2,120,114.5z"/>
		<path class="st2" d="M146.6,122.2c1.3,0,2.7-0.4,3.8-1c3.7-2.1,4.9-6.8,2.8-10.5c-2.1-3.5-6.9-4.9-10.5-2.8
			c-3.7,2.1-4.9,6.8-2.8,10.5C141.3,120.7,143.9,122.2,146.6,122.2L146.6,122.2z M145.1,111.8c0.5-0.3,1-0.4,1.5-0.4
			c1.1,0,2.1,0.6,2.7,1.6c0.8,1.5,0.3,3.4-1.1,4.2c-1.4,0.8-3.4,0.3-4.2-1.1C143.1,114.6,143.6,112.7,145.1,111.8L145.1,111.8z"/>
		<path class="st2" d="M162.3,128.3c-3.6-2.1-8.5-0.7-10.5,2.8c-1,1.8-1.3,3.8-0.8,5.8c0.5,2,1.8,3.6,3.6,4.7c1.2,0.7,2.5,1,3.8,1
			c2.7,0,5.3-1.5,6.7-3.9C167.2,135.1,165.9,130.4,162.3,128.3L162.3,128.3z M161.1,136.5c-0.8,1.4-2.8,2-4.3,1.1
			c-0.7-0.4-1.2-1.1-1.5-1.9c-0.2-0.8-0.1-1.6,0.3-2.4c0.5-1,1.6-1.6,2.7-1.6c0.5,0,1.1,0.1,1.5,0.4
			C161.5,133.1,162,135,161.1,136.5L161.1,136.5z"/>
		<path class="st2" d="M146.6,163c4.2,0,7.7-3.4,7.7-7.7s-3.4-7.7-7.7-7.7c-4.2,0-7.7,3.4-7.7,7.7S142.4,163,146.6,163z
			 M146.6,152.3c1.7,0,3.1,1.4,3.1,3.1c0,1.7-1.4,3.1-3.1,3.1c-1.7,0-3.1-1.4-3.1-3.1C143.5,153.6,144.9,152.3,146.6,152.3z"/>
		<path class="st2" d="M119.2,148.7c-1.8,1-3,2.7-3.6,4.7c-0.5,2-0.3,4,0.8,5.8c1.4,2.4,3.9,3.8,6.6,3.8c1.3,0,2.7-0.4,3.8-1
			c1.8-1,3.1-2.7,3.6-4.7c0.5-2,0.3-4.1-0.8-5.8C127.7,148,122.8,146.7,119.2,148.7L119.2,148.7z M126.1,156.2
			c-0.2,0.8-0.7,1.5-1.5,1.9c-1.4,0.8-3.4,0.3-4.2-1.1c-0.4-0.7-0.5-1.6-0.3-2.4c0.2-0.8,0.7-1.5,1.4-1.9c0.5-0.3,1-0.4,1.6-0.4
			c1.1,0,2.1,0.6,2.7,1.6C126.2,154.5,126.3,155.4,126.1,156.2L126.1,156.2z"/>
		<path class="st2" d="M115.1,128.3c-3.5-2.1-8.5-0.7-10.5,2.8c-1,1.8-1.3,3.8-0.8,5.8c0.5,2,1.8,3.6,3.6,4.7c1.2,0.7,2.5,1,3.8,1
			c2.7,0,5.3-1.5,6.7-3.8c1-1.8,1.3-3.8,0.8-5.8C118.2,131,116.9,129.3,115.1,128.3L115.1,128.3z M114,136.5c-0.8,1.4-2.8,2-4.2,1.1
			c-0.7-0.4-1.3-1.1-1.5-1.9c-0.2-0.8-0.1-1.6,0.3-2.4c0.5-1,1.6-1.6,2.7-1.6c0.5,0,1.1,0.2,1.6,0.4c0.7,0.4,1.2,1.1,1.4,1.9
			C114.5,134.9,114.4,135.8,114,136.5L114,136.5z"/>
		<path class="st2" d="M244.3,135c0-1.5,0.7-2.9,2-3.7c0.6-0.4,1-1.2,1-2c-0.6-11-2.7-21.8-6.4-32c-0.3-0.8-0.9-1.3-1.7-1.5
			c-1.4-0.3-2.6-1.3-3.2-2.7c-0.6-1.4-0.4-2.9,0.4-4.3c0.4-0.7,0.5-1.5,0.1-2.2c-4.7-10-10.9-19.1-18.2-27.1
			c-0.5-0.6-1.3-0.8-2.1-0.7c-1.4,0.2-2.9-0.2-4-1.3c-1.1-1.1-1.5-2.5-1.3-4c0.1-0.8-0.1-1.6-0.7-2.1c-8.1-7.3-17.2-13.5-27.1-18.2
			c-0.7-0.3-1.5-0.3-2.2,0.1c-1.3,0.8-3,0.9-4.2,0.4c-1.4-0.6-2.4-1.8-2.7-3.2c-0.2-0.8-0.7-1.4-1.5-1.7
			c-10.3-3.7-21.1-5.8-32.1-6.4c-0.9,0-1.5,0.3-2,1c-1.7,2.5-5.7,2.5-7.4,0c-0.5-0.6-1.1-1-2-1c-10.9,0.6-21.7,2.7-32.1,6.4
			c-0.7,0.3-1.3,0.9-1.5,1.7c-0.3,1.4-1.3,2.6-2.7,3.2c-1.3,0.6-3,0.4-4.2-0.4c-0.7-0.4-1.5-0.5-2.2-0.1
			C76.8,37.9,67.6,44,59.4,51.4c-0.6,0.5-0.9,1.3-0.7,2.1c0.3,1.5-0.2,3-1.3,4.1c-1,1-2.5,1.5-4,1.3c-0.8-0.1-1.6,0.1-2.1,0.7
			c-7.4,8.1-13.5,17.2-18.1,27.1c-0.2,0.3-0.2,0.7-0.2,1c0,0.4,0.1,0.9,0.4,1.2c0.8,1.3,1,2.8,0.4,4.2c-0.6,1.4-1.8,2.4-3.2,2.7
			c-0.8,0.2-1.4,0.7-1.7,1.5c-3.7,10.3-5.8,21.1-6.3,32.1c0,0.8,0.3,1.5,1,2c1.2,0.9,1.9,2.2,1.9,3.7c0,1.5-0.7,2.8-1.9,3.7
			c-0.6,0.5-1,1.2-1,2c0.5,11,2.7,21.8,6.3,32.1c0.3,0.7,0.9,1.3,1.7,1.5c1.4,0.3,2.6,1.3,3.2,2.7c0.6,1.4,0.5,2.9-0.4,4.2
			c-0.2,0.4-0.4,0.8-0.4,1.3c0,0.3,0.1,0.7,0.2,1c4.6,9.8,10.7,18.9,18.1,27.1c0.4,0.5,1.5,0.7,2.1,0.7c1.5-0.2,3,0.2,4,1.3
			c1.1,1.1,1.5,2.5,1.3,4.5c0,0.6,0.3,1.3,0.8,1.7c8.3,7.4,17.4,13.5,27.1,18.1c0.7,0.3,1.5,0.3,2.2-0.1c1.2-0.8,2.8-0.9,4.2-0.4
			c1.4,0.6,2.4,1.8,2.7,3.2c0.1,0.8,0.7,1.5,1.5,1.7c10.3,3.7,21.1,5.8,32,6.4c0.8,0.1,1.5-0.3,2-1c1.7-2.5,5.8-2.5,7.5,0
			c0.4,0.6,1.1,1,1.9,1h0.1c11-0.6,21.8-2.7,32-6.4c0.8-0.3,1.3-0.9,1.5-1.7c0.3-1.4,1.2-2.6,2.7-3.2c1.3-0.6,3-0.4,4.3,0.4
			c0.6,0.4,1.5,0.5,2.2,0.1c9.8-4.6,18.9-10.7,27.1-18.1c0.5-0.4,0.7-1.5,0.7-2.1c-0.3-1.5,0.2-3,1.3-4c0.9-0.9,2-1.4,3.2-1.4
			c0.3,0,0.5,0,1.2,0.1c0.6,0,1.3-0.3,1.7-0.8c7.4-8.3,13.5-17.4,18.1-27.1c0.3-0.7,0.3-1.5-0.1-2.2c-0.8-1.3-1-2.9-0.4-4.2
			c0.6-1.4,1.8-2.4,3.2-2.7c0.8-0.2,1.5-0.7,1.7-1.5c3.7-10.3,5.8-21,6.4-32c0-0.8-0.3-1.5-1-2C245.1,137.8,244.3,136.5,244.3,135
			L244.3,135z M242.7,141.6c-0.6,9.8-2.5,19.3-5.6,28.5c-2.3,0.8-4.2,2.7-5.2,5c-1,2.3-0.9,5,0.1,7.3c-4.2,8.6-9.6,16.7-16.1,24.1
			c-2.6,0-5,0.9-6.8,2.7c-1.9,1.9-2.8,4.4-2.7,6.8c-7.3,6.5-15.4,11.9-24.1,16.1c-2.3-1-5-1.1-7.3-0.1c-2.4,1-4.2,2.9-5,5.2
			c-9.2,3.1-18.7,5-28.5,5.6c-1.7-1.8-4.1-2.9-6.7-2.9s-4.9,1.1-6.7,2.9c-9.7-0.6-19.3-2.5-28.5-5.6c-0.8-2.3-2.6-4.2-5-5.2
			c-2.3-1-5-0.9-7.3,0.1c-8.6-4.2-16.7-9.5-24.1-16.1c0.1-2.5-0.9-4.9-2.7-6.8c-1.8-1.8-4.2-2.8-6.8-2.7
			c-6.4-7.3-11.8-15.4-16.1-24.1c1-2.3,1.1-4.9,0.1-7.3c-1-2.3-2.9-4.1-5.2-5c-3.1-9.2-5-18.8-5.6-28.5c1.8-1.7,2.9-4,2.9-6.6
			c0-2.6-1-4.9-2.9-6.6c0.6-9.8,2.5-19.4,5.6-28.5c2.3-0.9,4.2-2.7,5.2-5c1-2.4,1-5-0.1-7.3c4.3-8.7,9.7-16.8,16.2-24.1
			c2.5,0.1,5-0.9,6.7-2.7c1.8-1.8,2.7-4.2,2.7-6.7c7.4-6.5,15.5-11.9,24.1-16.1c2.3,1,5,1.1,7.3,0.1c2.3-1,4.1-2.9,5-5.2
			c9.2-3.2,18.8-5.1,28.5-5.6c3.4,3.7,9.8,3.7,13.2,0c9.8,0.6,19.4,2.5,28.5,5.6c0.9,2.3,2.7,4.2,5,5.2c2.3,1,5,0.9,7.3-0.1
			c8.7,4.3,16.8,9.7,24.1,16.2c0,2.5,0.9,4.9,2.7,6.7c1.7,1.8,4.2,2.8,6.7,2.7c6.4,7.2,11.9,15.3,16.2,24.1c-1,2.3-1.1,5-0.1,7.3
			c1,2.4,2.9,4.2,5.2,5c3.2,9.1,5.1,18.7,5.6,28.5c-1.8,1.7-2.9,4.1-2.9,6.7C239.7,137.5,240.8,139.9,242.7,141.6L242.7,141.6z"/>
	</g>
</g>
</svg>
